<svg width="34" height="34" viewBox="0 0 34 34" fill="none" xmlns="http://www.w3.org/2000/svg">
<path d="M16.9337 7.6665C11.8204 7.6665 7.70325 11.7998 7.70325 16.9332C7.70325 22.0665 11.8204 26.1998 16.9337 26.1998C22.047 26.1998 26.1642 22.0665 26.1642 16.9332C26.1642 11.7998 21.9806 7.6665 16.9337 7.6665ZM19.4572 21.3332C18.7931 20.6665 18.129 19.9998 17.465 19.3332C17.1329 18.9998 16.7345 18.5998 16.4025 18.2665C16.1368 17.9998 15.8048 17.7332 15.672 17.2665C15.4728 16.5998 15.6056 15.7998 15.6056 15.1332C15.6056 13.3332 15.6056 11.5998 15.6056 9.79984C15.6056 8.0665 18.2618 8.0665 18.2618 9.79984V16.3998L21.3165 19.4665C22.5118 20.6665 20.6525 22.5332 19.4572 21.3332Z" fill="#346AEA"/>
<path d="M31.2773 18.3333H31.2109C30.6133 18.3333 30.0156 17.8667 29.8828 17.2667C29.6836 16.4667 30.3477 15.6667 31.2109 15.6667H31.2773H33.9336C33.2695 7.33333 26.6289 0.6 18.2617 0V0.133334V2.66667V2.73333C18.2617 3.46667 17.5977 4.13333 16.8672 4.06667C16.2031 4 15.6055 3.4 15.6055 2.73333V2.66667C15.6055 1.8 15.6055 0.866667 15.6055 0C7.30469 0.666667 0.664063 7.33333 0 15.6667H0.199219H2.72266H2.78906C3.58594 15.6667 4.18359 16.4 4.11719 17.1333C4.05078 17.8 3.45313 18.3333 2.78906 18.3333H2.72266C1.85938 18.3333 0.929688 18.3333 0.0664062 18.3333C0.730469 26.6667 7.37109 33.4 15.6719 34C15.6719 33.8667 15.6719 33.8 15.6719 33.6667C15.6719 32.8667 15.6719 32.1333 15.6719 31.3333C15.6719 31.2667 15.6719 31.2 15.6719 31.0667C15.6719 30.2667 16.3359 29.6667 17.1328 29.7333C17.7969 29.8 18.3281 30.4 18.3281 31.0667V34C26.6953 33.3333 33.3359 26.6667 34 18.3333C33.9336 18.3333 33.8672 18.3333 33.8008 18.3333C32.9375 18.3333 32.1406 18.3333 31.2773 18.3333ZM16.9336 28.8667C10.3594 28.8667 5.04688 23.5333 5.04688 16.9333C5.04688 10.3333 10.3594 5 16.9336 5C23.5078 5 28.8203 10.3333 28.8203 16.9333C28.8203 23.5333 23.5078 28.8667 16.9336 28.8667Z" fill="#346AEA"/>
</svg>
