<svg width="28" height="32" viewBox="0 0 28 32" fill="none" xmlns="http://www.w3.org/2000/svg">
<path d="M26.5303 14.5091C25.8328 14.5091 25.267 13.9119 25.267 13.1758C25.267 9.43585 23.8873 5.9212 21.382 3.2757C20.8881 2.75446 20.8881 1.91193 21.382 1.39044C21.8759 0.869202 22.6745 0.869202 23.1683 1.39044C26.1513 4.53839 27.7935 8.72394 27.7935 13.1758C27.7935 13.9119 27.2277 14.5091 26.5303 14.5091Z" fill="#346AEA"/>
<path d="M1.26317 14.5091C0.565942 14.5091 -0.00012207 13.9119 -0.00012207 13.1758C-0.00012207 8.72394 1.64232 4.53839 4.62508 1.39044C5.11897 0.869202 5.91752 0.869202 6.41141 1.39044C6.90553 1.91193 6.90553 2.75446 6.41141 3.2757C3.90611 5.91974 2.52669 9.43585 2.52669 13.1758C2.52669 13.9119 1.96063 14.5091 1.26317 14.5091Z" fill="#346AEA"/>
<path d="M25.7466 22.5508C23.8362 20.8467 22.7409 18.356 22.7409 15.7173V12C22.7409 7.30811 19.4384 3.42407 15.1607 2.77344V1.33325C15.1607 0.595947 14.5946 0 13.8974 0C13.1999 0 12.6339 0.595947 12.6339 1.33325V2.77344C8.35496 3.42407 5.05365 7.30811 5.05365 12V15.7173C5.05365 18.356 3.95831 20.8467 2.03688 22.5613C1.54531 23.0054 1.26355 23.6506 1.26355 24.3333C1.26355 25.6201 2.25526 26.6667 3.4746 26.6667H24.3202C25.5393 26.6667 26.531 25.6201 26.531 24.3333C26.531 23.6506 26.2492 23.0054 25.7466 22.5508Z" fill="#346AEA"/>
<path d="M13.8974 32C16.1852 32 18.0992 30.2786 18.539 28H9.25574C9.69526 30.2786 11.6093 32 13.8974 32Z" fill="#346AEA"/>
</svg>
