<svg width="32" height="32" viewBox="0 0 32 32" fill="none" xmlns="http://www.w3.org/2000/svg">
<path d="M16.875 0.549316V6.25013H22.5758L16.875 0.549316Z" fill="#346AEA"/>
<path d="M7.4375 26.25C8.9908 26.25 10.25 24.9908 10.25 23.4375C10.25 21.8842 8.9908 20.625 7.4375 20.625C5.8842 20.625 4.625 21.8842 4.625 23.4375C4.625 24.9908 5.8842 26.25 7.4375 26.25Z" fill="#346AEA"/>
<path d="M18.25 32V30.125C18.25 29.0894 19.0894 28.25 20.125 28.25H30.125C31.1606 28.25 32 29.0894 32 30.125V31.0625C32 31.5803 31.5802 32 31.0625 32H18.25Z" fill="#346AEA"/>
<path d="M16.375 30.125C16.375 28.0573 18.0573 26.375 20.125 26.375H21.375V24.1445C21.375 23.0391 21.0505 21.9665 20.4364 21.0426C19.8239 20.1208 19.5 19.0471 19.5 17.9375C19.5 15.54 21.0079 13.4884 23.125 12.6803V8.125H15.9375C15.4198 8.125 15 7.70525 15 7.1875V0H0.9375C0.41975 0 0 0.41975 0 0.9375V31.0625C0 31.5802 0.41975 32 0.9375 32H16.375V30.125ZM3.6875 3.75H11.1875C11.7052 3.75 12.125 4.16975 12.125 4.6875C12.125 5.20525 11.7052 5.625 11.1875 5.625H3.6875C3.16975 5.625 2.75 5.20525 2.75 4.6875C2.75 4.16975 3.16975 3.75 3.6875 3.75ZM3.6875 8.5H11.1875C11.7052 8.5 12.125 8.91975 12.125 9.4375C12.125 9.95525 11.7052 10.375 11.1875 10.375H3.6875C3.16975 10.375 2.75 9.95525 2.75 9.4375C2.75 8.91975 3.16975 8.5 3.6875 8.5ZM3.6875 13.25H15.4375C15.9552 13.25 16.375 13.6698 16.375 14.1875C16.375 14.7052 15.9552 15.125 15.4375 15.125H3.6875C3.16975 15.125 2.75 14.7052 2.75 14.1875C2.75 13.6698 3.16975 13.25 3.6875 13.25ZM7.4375 28.125C4.85281 28.125 2.75 26.0222 2.75 23.4375C2.75 20.8528 4.85281 18.75 7.4375 18.75C10.0222 18.75 12.125 20.8528 12.125 23.4375C12.125 26.0222 10.0222 28.125 7.4375 28.125Z" fill="#346AEA"/>
<path d="M23.25 24.1444V26.375H27V24.1444C27 22.671 27.4364 21.2319 28.2519 20.0047C28.6455 19.4126 28.875 18.7022 28.875 17.9375C28.875 15.8664 27.1961 14.1875 25.125 14.1875C23.0539 14.1875 21.375 15.8664 21.375 17.9375C21.375 18.7022 21.6045 19.4126 21.9981 20.0048C22.8136 21.2319 23.25 22.671 23.25 24.1444Z" fill="#346AEA"/>
</svg>
