<svg width="32" height="30" viewBox="0 0 32 30" fill="none" xmlns="http://www.w3.org/2000/svg">
<path d="M12.4571 17.0571H5.71429C5.07429 17.0571 4.57143 16.5571 4.57143 15.9207C4.57143 15.2957 5.07429 14.7844 5.71429 14.7844H11.1086C10.7886 14.1026 10.5371 13.3866 10.3543 12.6367H5.71429C5.07429 12.6367 4.57143 12.1253 4.57143 11.5003C4.57143 10.8753 5.07429 10.3639 5.71429 10.3639H10.0229C10.0114 10.1708 10.0114 9.98893 10.0114 9.79575C10.0114 8.44348 10.24 7.14803 10.6514 5.93213H4.11429C1.84 5.93213 0 7.77303 0 10.023V21.8184C0 23.9207 1.61143 25.6707 3.68 25.8752V28.273C3.68 28.9434 4.05714 29.5343 4.66286 29.8298C4.90286 29.9434 5.16571 30.0002 5.41714 30.0002C5.80571 30.0002 6.18286 29.8752 6.49143 29.6252L9.06286 27.6139C10.4571 26.5116 12.2171 25.898 14.0114 25.898H21.92C24.1829 25.898 26.0343 24.0684 26.0343 21.8184V21.2275C24.8114 21.6366 23.5086 21.8639 22.1486 21.8639C18.1943 21.8639 14.6743 19.9775 12.4571 17.0571ZM13.0171 21.4889H5.71429C5.07429 21.4889 4.57143 20.9775 4.57143 20.3525C4.57143 19.7275 5.07429 19.2162 5.71429 19.2162H13.0171C13.6457 19.2162 14.16 19.7275 14.16 20.3525C14.16 20.9775 13.6457 21.4889 13.0171 21.4889Z" fill="#346AEA"/>
<path d="M22.1483 0C16.7083 0 12.2969 4.39771 12.2969 9.79542C12.2969 15.2045 16.7083 19.5908 22.1483 19.5908C27.5769 19.5908 31.9997 15.2045 31.9997 9.79542C31.9997 4.39771 27.5769 0 22.1483 0ZM22.1369 16.1022C21.5083 16.1022 20.994 15.5909 20.994 14.9659C20.994 14.3409 21.4969 13.8295 22.1254 13.8295H22.1369C22.7654 13.8295 23.2797 14.3409 23.2797 14.9659C23.2797 15.5909 22.7654 16.1022 22.1369 16.1022ZM23.2912 10.8522V11.5454C23.2912 12.1704 22.7769 12.6818 22.1483 12.6818C21.5197 12.6818 21.0054 12.1704 21.0054 11.5454V9.93178C21.0054 9.30679 21.5197 8.79542 22.1483 8.79542C22.6854 8.79542 23.1312 8.36361 23.1312 7.81815C23.1312 7.28407 22.6854 6.85225 22.1483 6.85225C21.6112 6.85225 21.1654 7.28407 21.1654 7.81815C21.1654 8.45452 20.6512 8.95451 20.0226 8.95451C19.394 8.95451 18.8797 8.45452 18.8797 7.81815C18.8797 6.03407 20.3426 4.57953 22.1483 4.57953C23.9426 4.57953 25.4169 6.03407 25.4169 7.81815C25.4169 9.21588 24.5254 10.3863 23.2912 10.8522Z" fill="#346AEA"/>
</svg>
