<svg width="36" height="36" viewBox="0 0 36 36" fill="none" xmlns="http://www.w3.org/2000/svg">
<path d="M29.0234 0.660645V7.00054H35.3883L29.0234 0.660645Z" fill="#346AEA"/>
<path d="M27.9769 9.08515C27.3989 9.08515 26.9302 8.61837 26.9302 8.04261V0.0498047H11.9273C10.1958 0.0498047 8.78711 1.45285 8.78711 3.17742V14.8322C9.13197 14.8011 9.48094 14.7844 9.83383 14.7844C13.4016 14.7844 16.5954 16.4091 18.709 18.9545H30.0704C30.6484 18.9545 31.1171 19.4213 31.1171 19.9971C31.1171 20.5728 30.6484 21.0396 30.0704 21.0396H20.088C20.7423 22.3112 21.1642 23.72 21.2996 25.2098H30.0704C30.6484 25.2098 31.1171 25.6765 31.1171 26.2523C31.1171 26.8281 30.6484 27.2948 30.0704 27.2948H21.2996C20.9866 30.7379 19.1396 33.7465 16.4462 35.6351H32.8616C34.5931 35.6351 36.0018 34.2321 36.0018 32.5075V9.08515H27.9769ZM30.0704 14.7844H14.7185C14.1404 14.7844 13.6718 14.3176 13.6718 13.7418C13.6718 13.1661 14.1404 12.6993 14.7185 12.6993H30.0704C30.6484 12.6993 31.1171 13.1661 31.1171 13.7418C31.1171 14.3176 30.6484 14.7844 30.0704 14.7844Z" fill="#346AEA"/>
<path d="M9.83648 16.8701C4.64203 16.8701 0.416016 21.0793 0.416016 26.253C0.416016 31.4267 4.64203 35.6358 9.83648 35.6358C15.0309 35.6358 19.2569 31.4267 19.2569 26.253C19.2569 21.0793 15.0309 16.8701 9.83648 16.8701ZM12.6277 27.2955H9.83648C9.25841 27.2955 8.78976 26.8287 8.78976 26.253V22.0828C8.78976 21.5071 9.25841 21.0403 9.83648 21.0403C10.4145 21.0403 10.8832 21.5071 10.8832 22.0828V25.2104H12.6277C13.2058 25.2104 13.6744 25.6772 13.6744 26.253C13.6744 26.8287 13.2058 27.2955 12.6277 27.2955Z" fill="#346AEA"/>
</svg>
