<svg width="392" height="318" viewBox="0 0 392 318" fill="none" xmlns="http://www.w3.org/2000/svg">
<path d="M377.978 11.5935V154.457C377.978 159.664 373.756 163.886 368.549 163.886H86.1852C80.9776 163.886 76.7559 159.664 76.7559 154.457V11.5914C76.7559 5.18888 81.9447 0 88.3473 0H366.384C372.787 0 377.978 5.19096 377.978 11.5935Z" fill="#423717"/>
<path d="M368.973 154.885V9.00293L85.7591 9.00293V154.885L368.973 154.885Z" fill="white"/>
<path d="M320.453 19.8486H101.662C99.7048 19.8486 98.1172 21.4362 98.1172 23.3935C98.1172 25.3509 99.7048 26.9384 101.662 26.9384H320.453C322.411 26.9384 323.998 25.3529 323.998 23.3935C323.998 21.4341 322.411 19.8486 320.453 19.8486Z" fill="#E5E5E5"/>
<path d="M337.893 23.4031C337.9 21.6807 336.509 20.2793 334.786 20.273C333.064 20.2666 331.662 21.6578 331.656 23.3803C331.65 25.1027 333.041 26.5041 334.763 26.5105C336.486 26.5168 337.887 25.1255 337.893 23.4031Z" fill="white"/>
<path d="M347.253 23.4032C347.259 21.6807 345.868 20.2793 344.146 20.273C342.423 20.2666 341.022 21.6579 341.015 23.3803C341.009 25.1027 342.4 26.5041 344.123 26.5105C345.845 26.5168 347.246 25.1256 347.253 23.4032Z" fill="white"/>
<path d="M356.608 23.4032C356.615 21.6807 355.223 20.2793 353.501 20.273C351.779 20.2666 350.377 21.6579 350.371 23.3803C350.364 25.1027 351.756 26.5041 353.478 26.5105C355.201 26.5168 356.602 25.1256 356.608 23.4032Z" fill="white"/>
<path d="M229.808 136.979H106.389V137.442H229.808V136.979Z" fill="#E5E5E5"/>
<path d="M229.808 124.158H106.389V124.622H229.808V124.158Z" fill="#E5E5E5"/>
<path d="M229.808 111.34H106.389V111.804H229.808V111.34Z" fill="#E5E5E5"/>
<path d="M229.808 98.5195H106.389V98.9833H229.808V98.5195Z" fill="#E5E5E5"/>
<path d="M123.592 105.971H117.705V136.979H123.592V105.971Z" fill="#85A6F2"/>
<path d="M132.34 92.5312H126.453V136.979H132.34V92.5312Z" fill="#346AEA"/>
<path d="M145.918 117.535H140.031V136.979H145.918V117.535Z" fill="#9FD5F8"/>
<path d="M154.668 104.095H148.781V136.978H154.668V104.095Z" fill="#77C3F0"/>
<path d="M168.246 101.846H162.359V136.979H168.246V101.846Z" fill="#9FD5F8"/>
<path d="M176.996 107.729H171.109V136.979H176.996V107.729Z" fill="#77C3F0"/>
<path d="M190.574 92.5312H184.688V136.979H190.574V92.5312Z" fill="#9FD5F8"/>
<path d="M199.324 92.5312H193.438V136.979H199.324V92.5312Z" fill="#77C3F0"/>
<path d="M212.902 89.5889H207.016V136.978H212.902V89.5889Z" fill="#85A6F2"/>
<path d="M221.652 80.9961H215.766V136.979H221.652V80.9961Z" fill="#346AEA"/>
<path d="M234.13 144.04H105.316V80.9961H107.405V141.949H234.13V144.04Z" fill="#AEC3F7"/>
<path d="M230.315 35.8418H105.316V76.8828H230.315V35.8418Z" fill="white"/>
<path d="M215.765 43.3027H129.887C128.438 43.3027 127.262 44.4788 127.262 45.9285C127.262 47.3782 128.438 48.5543 129.887 48.5543H215.765C217.215 48.5543 218.391 47.3782 218.391 45.9285C218.391 44.4788 217.215 43.3027 215.765 43.3027Z" fill="#FD8001"/>
<path d="M120.622 49.313C122.491 49.313 124.006 47.7979 124.006 45.929C124.006 44.06 122.491 42.5449 120.622 42.5449C118.753 42.5449 117.238 44.06 117.238 45.929C117.238 47.7979 118.753 49.313 120.622 49.313Z" fill="#5D88EE"/>
<path d="M120.113 47.6175L118.733 46.2367C118.597 46.1009 118.597 45.8837 118.733 45.7479C118.868 45.6121 119.086 45.6121 119.222 45.7479L120.113 46.6399L122.023 44.7327C122.159 44.5969 122.376 44.5969 122.512 44.7327C122.647 44.8685 122.647 45.0857 122.512 45.2215L120.116 47.6175H120.113Z" fill="white"/>
<path d="M215.765 53.7373H129.887C128.438 53.7373 127.262 54.9134 127.262 56.3631C127.262 57.8128 128.438 58.9888 129.887 58.9888H215.765C217.215 58.9888 218.391 57.8128 218.391 56.3631C218.391 54.9134 217.215 53.7373 215.765 53.7373Z" fill="#FD8001"/>
<path d="M124.006 56.3739C124.012 54.5061 122.503 52.9869 120.635 52.9807C118.767 52.9745 117.248 54.4836 117.242 56.3514C117.235 58.2192 118.745 59.7384 120.612 59.7446C122.48 59.7508 123.999 58.2417 124.006 56.3739Z" fill="#5D88EE"/>
<path d="M120.113 58.0491L118.733 56.6684C118.597 56.5326 118.597 56.3153 118.733 56.1796C118.868 56.0438 119.086 56.0438 119.222 56.1796L120.113 57.0715L122.023 55.1643C122.159 55.0286 122.376 55.0286 122.512 55.1643C122.647 55.3001 122.647 55.5174 122.512 55.6531L120.116 58.0491H120.113Z" fill="white"/>
<path d="M215.765 64.1689H129.887C128.438 64.1689 127.262 65.345 127.262 66.7947C127.262 68.2444 128.438 69.4205 129.887 69.4205H215.765C217.215 69.4205 218.391 68.2444 218.391 66.7947C218.391 65.345 217.215 64.1689 215.765 64.1689Z" fill="#F49919"/>
<path d="M120.627 70.1914C122.496 70.1852 124.006 68.6651 124 66.7962C123.994 64.9272 122.474 63.4172 120.605 63.4233C118.736 63.4295 117.226 64.9497 117.232 66.8186C117.238 68.6876 118.758 70.1976 120.627 70.1914Z" fill="#5D88EE"/>
<path d="M121.11 66.7955L122.099 65.8074C122.234 65.6717 122.234 65.4544 122.099 65.3186C121.963 65.1829 121.745 65.1829 121.61 65.3186L120.622 66.3067L119.634 65.3186C119.498 65.1829 119.281 65.1829 119.145 65.3186C119.009 65.4544 119.009 65.6717 119.145 65.8074L120.133 66.7955L119.145 67.7836C119.009 67.9193 119.009 68.1366 119.145 68.2724C119.281 68.4081 119.498 68.4081 119.634 68.2724L120.622 67.2843L121.61 68.2724C121.745 68.4081 121.963 68.4081 122.099 68.2724C122.234 68.1366 122.234 67.9193 122.099 67.7836L121.11 66.7955Z" fill="white"/>
<path d="M271.982 116.496H244.436V144.036H271.982V116.496Z" fill="#FD8001"/>
<path d="M264.956 130.96L266.739 130.297V130.208C266.737 129.838 266.712 129.47 266.662 129.113C266.614 128.756 266.539 128.394 266.443 128.039L266.42 127.954L264.523 127.795C264.264 127.133 263.907 126.525 263.468 125.988L264.262 124.258L264.197 124.196C263.936 123.937 263.658 123.696 263.37 123.477C263.086 123.26 262.777 123.057 262.455 122.873L262.378 122.83L260.924 124.058C260.291 123.78 259.61 123.598 258.902 123.525L258.24 121.741H258.15C257.78 121.743 257.412 121.77 257.057 121.818C256.7 121.867 256.341 121.942 255.984 122.038L255.898 122.061L255.737 123.958C255.075 124.217 254.467 124.574 253.932 125.01L252.203 124.217L252.14 124.279C251.879 124.542 251.637 124.822 251.421 125.106C251.202 125.395 250.999 125.702 250.818 126.021L250.774 126.099L252.002 127.553C251.724 128.186 251.543 128.867 251.469 129.575L249.686 130.237V130.327C249.688 130.696 249.713 131.064 249.763 131.421C249.811 131.778 249.886 132.14 249.982 132.495L250.005 132.581L251.902 132.741C252.161 133.404 252.518 134.012 252.955 134.546L252.161 136.276L252.224 136.339C252.485 136.598 252.763 136.838 253.051 137.057C253.335 137.274 253.642 137.477 253.966 137.661L254.043 137.705L255.497 136.476C256.13 136.754 256.811 136.936 257.519 137.009L258.181 138.793H258.271C258.641 138.791 259.008 138.764 259.366 138.716C259.721 138.668 260.082 138.595 260.439 138.496L260.525 138.473L260.686 136.577C261.348 136.318 261.956 135.96 262.493 135.522L264.222 136.316L264.285 136.253C264.546 135.988 264.788 135.71 265.004 135.426C265.223 135.14 265.426 134.83 265.609 134.511L265.653 134.433L264.425 132.98C264.703 132.347 264.885 131.666 264.958 130.958L264.956 130.96ZM258.779 134.438C256.475 134.751 254.354 133.138 254.039 130.836C253.726 128.534 255.338 126.412 257.64 126.099C259.944 125.785 262.067 127.398 262.38 129.7C262.693 132.002 261.081 134.124 258.777 134.438H258.779Z" fill="white"/>
<path d="M257.861 127.71C256.447 127.903 255.459 129.204 255.651 130.618C255.843 132.03 257.144 133.02 258.559 132.828C259.973 132.636 260.961 131.335 260.769 129.92C260.577 128.506 259.275 127.518 257.861 127.71Z" fill="white"/>
<path d="M349.417 116.496H277.625V144.036H349.417V116.496Z" fill="#AEC3F7"/>
<path d="M345.3 122.389H284.859V123.086H345.3V122.389Z" fill="white"/>
<path d="M345.3 127.408H284.859V128.106H345.3V127.408Z" fill="white"/>
<path d="M345.3 132.43H284.859V133.127H345.3V132.43Z" fill="white"/>
<path d="M345.3 137.446H284.859V138.146H345.3V137.446Z" fill="white"/>
<path d="M349.418 35.2744H244.436V105.75H349.418V35.2744Z" fill="white"/>
<path opacity="0.6" d="M297.502 70.511C297.502 67.7473 296.821 65.1487 295.639 62.8488L303.892 58.084C305.881 61.7835 307.013 66.0135 307.013 70.5089C307.013 75.0042 305.883 79.2343 303.892 82.9338L295.639 78.1689C296.823 75.8711 297.502 73.2704 297.502 70.5089V70.511Z" fill="#346AEA"/>
<path opacity="0.2" d="M266.63 79.5947C269.477 84.0023 274.33 86.9749 279.903 87.2464V96.7761C270.81 96.4962 262.882 91.606 258.381 84.3595L266.632 79.5968L266.63 79.5947Z" fill="#346AEA"/>
<path d="M279.903 53.7777C274.332 54.0493 269.479 57.0218 266.632 61.4273L258.381 56.6646C262.882 49.4181 270.812 44.528 279.903 44.248V53.7777Z" fill="#346AEA"/>
<path d="M263.944 70.5118C263.944 73.2754 264.625 75.8741 265.808 78.1719L257.554 82.9367C255.566 79.2372 254.434 75.0072 254.434 70.5118C254.434 66.0164 255.564 61.7864 257.554 58.0869L265.808 62.8517C264.623 65.1495 263.944 67.7503 263.944 70.5139V70.5118Z" fill="#346AEA"/>
<path opacity="0.8" d="M294.818 61.4293C291.971 57.0217 287.118 54.0491 281.547 53.7796V44.25C290.64 44.5299 298.567 49.4201 303.069 56.6665L294.818 61.4293Z" fill="#346AEA"/>
<path opacity="0.4" d="M281.545 87.2464C287.116 86.977 291.969 84.0023 294.818 79.5947L303.069 84.3575C298.568 91.6039 290.638 96.4941 281.547 96.774V87.2443L281.545 87.2464Z" fill="#346AEA"/>
<path d="M320.733 77.4824H315.953V82.2598H320.733V77.4824Z" fill="#85A6F2"/>
<path d="M317.992 80.8992L317.042 79.9488C316.95 79.8569 316.95 79.7044 317.042 79.6125C317.134 79.5206 317.286 79.5206 317.378 79.6125L317.992 80.2266L319.306 78.9127C319.398 78.8208 319.55 78.8208 319.642 78.9127C319.734 79.0046 319.734 79.1571 319.642 79.249L317.992 80.8992Z" fill="white"/>
<path d="M339.421 77.4824H322.191V78.4078H339.421V77.4824Z" fill="#346AEA"/>
<path d="M335.149 80.3584H322.191V81.2838H335.149V80.3584Z" fill="#346AEA"/>
<path d="M320.733 87.2168H315.953V91.9942H320.733V87.2168Z" fill="#85A6F2"/>
<path d="M317.994 90.6346L317.044 89.6841C316.952 89.5922 316.952 89.4397 317.044 89.3478C317.135 89.2559 317.288 89.2559 317.38 89.3478L317.994 89.962L319.308 88.648C319.4 88.5561 319.552 88.5561 319.644 88.648C319.736 88.7399 319.736 88.8924 319.644 88.9843L317.994 90.6346Z" fill="white"/>
<path d="M339.421 87.2168H322.191V88.1422H339.421V87.2168Z" fill="#346AEA"/>
<path d="M335.149 90.0938H322.191V91.0191H335.149V90.0938Z" fill="#346AEA"/>
<path d="M320.733 49.0293H315.953V53.8067H320.733V49.0293Z" fill="#85A6F2"/>
<path d="M317.994 52.4461L317.044 51.4957C316.952 51.4037 316.952 51.2513 317.044 51.1593C317.135 51.0674 317.288 51.0674 317.38 51.1593L317.994 51.7735L319.308 50.4596C319.4 50.3676 319.552 50.3676 319.644 50.4596C319.736 50.5515 319.736 50.704 319.644 50.7959L317.994 52.4461Z" fill="white"/>
<path d="M339.421 49.0293H322.191V49.9547H339.421V49.0293Z" fill="#346AEA"/>
<path d="M335.149 51.9062H322.191V52.8316H335.149V51.9062Z" fill="#346AEA"/>
<path d="M320.733 58.7637H315.953V63.541H320.733V58.7637Z" fill="#85A6F2"/>
<path d="M317.992 62.1815L317.042 61.231C316.95 61.1391 316.95 60.9866 317.042 60.8947C317.134 60.8028 317.286 60.8028 317.378 60.8947L317.992 61.5088L319.306 60.1949C319.398 60.103 319.55 60.103 319.642 60.1949C319.734 60.2868 319.734 60.4393 319.642 60.5312L317.992 62.1815Z" fill="white"/>
<path d="M339.421 58.7637H322.191V59.6891H339.421V58.7637Z" fill="#346AEA"/>
<path d="M335.149 61.6406H322.191V62.566H335.149V61.6406Z" fill="#346AEA"/>
<path d="M337.995 295.372L332.984 285.573L324.035 290.085L328.129 298.596C329.063 300.413 329.335 301.629 328.978 302.565L325.353 311.695C324.501 313.905 327.252 315.727 328.955 314.079L343.47 300.029L337.995 295.372Z" fill="#FFC5BD"/>
<path d="M317.045 316.141C317.088 315.567 317.421 315.036 317.974 314.792L325.116 311.807L326.111 309.486C331.792 306.722 336.06 302.544 339.375 296.817C339.507 296.595 339.772 296.551 339.95 296.706L343.906 300.023C344.194 300.265 344.393 300.554 344.547 300.863C345.057 301.88 344.879 303.14 344.017 303.959L336.898 310.856L331.099 316.463C330.082 317.447 328.722 317.996 327.305 317.996H318.567C317.705 317.996 317.02 317.267 317.02 316.317C317.02 316.25 317.02 316.183 317.042 316.139L317.045 316.141Z" fill="#273238"/>
<path d="M317.044 316.14H327.74C328.395 316.14 329.026 315.886 329.496 315.43L344.547 300.864C345.057 301.882 344.879 303.141 344.016 303.96L331.437 316.143L330.248 317.291C329.776 317.747 329.148 318 328.494 318H318.571C317.709 318 317.023 317.271 317.023 316.32C317.023 316.253 317.023 316.186 317.046 316.143L317.044 316.14Z" fill="#273238"/>
<path d="M336.731 289.424L324.214 296.617C324.214 296.596 300.659 252.181 297.179 245.555C294.769 241.026 291.027 234.12 291.614 227.981C291.974 224.238 294.533 220.097 299.556 218.412C302.224 217.515 304.852 216.694 307.567 215.986C308.071 217.223 332.58 279.13 336.731 289.424Z" fill="#273238"/>
<path d="M357.651 214.412C357.609 225.695 351.113 235.218 342.978 235.92L301.041 239.707L294.883 231.604C291.954 227.75 295.088 220.028 299.098 218.576C308.085 215.321 323.693 212.115 330.664 211.34C338.483 210.471 351.077 209.702 357.929 210.082L357.649 214.415L357.651 214.412Z" fill="#273238"/>
<path d="M371.015 205.213V217.247C371.015 228.548 360.572 237.796 351.64 238.13L320.735 239.346L312.747 239.661L303.689 239.998L303.395 218.129C303.395 218.129 308.805 216.66 311.51 216.052C312.705 215.781 313.9 215.528 315.095 215.277C322.665 213.725 330.296 212.718 337.949 212.259L339.844 205.213H371.015Z" fill="#273238"/>
<path d="M321.833 191.434C323.667 190.704 324.561 188.625 323.831 186.791C323.1 184.957 321.021 184.063 319.188 184.794C317.354 185.524 316.459 187.603 317.19 189.437C317.92 191.27 319.999 192.165 321.833 191.434Z" fill="#FFC5BD"/>
<path d="M300.822 192.39L306.993 192.906C307.334 192.461 307.62 191.993 308.015 191.571C308.723 190.796 309.711 190.311 310.659 189.841C309.404 190.589 308.831 191.753 308.065 192.996L309.964 193.154C310.005 193.121 310.026 193.083 310.068 193.05C310.586 192.526 311.041 191.842 311.712 191.521C312.541 191.118 313.427 191.627 314.267 191.774C314.843 191.897 315.489 192.122 316.074 192.133C316.773 192.133 317.316 191.763 317.939 191.569C318.25 191.462 318.683 191.498 319.006 191.487C319.197 191.485 319.422 191.504 319.664 191.542H319.683C319.869 191.577 320.057 191.594 320.226 191.627L320.358 191.638C320.531 190.706 320.153 189.555 319.909 188.626C319.754 187.988 319.56 187.366 319.424 186.71C319.286 186.092 319.756 185.242 319.6 184.621C317.655 184.761 311.789 184.479 308.746 184.849C307.981 184.937 307.179 185.229 306.425 185.64C304.102 186.923 301.959 189.434 301.157 191.546C301.04 191.82 300.921 192.114 300.82 192.39H300.822Z" fill="#FFC5BD"/>
<path d="M300.633 191.92C300.62 192.07 300.608 192.221 300.654 192.356L300.67 192.377C300.725 192.384 302.231 192.509 302.231 192.509C302.6 192.16 302.776 191.646 303.025 191.174C303.871 189.444 305.569 188.166 307.47 187.853C307.873 187.792 308.332 187.736 308.55 187.393C308.729 187.067 308.61 186.66 308.368 186.393C307.986 185.981 307.248 185.749 306.423 185.643C305.433 185.484 304.349 185.526 303.747 185.703C302.933 185.918 302.448 186.731 302.064 187.475C301.796 187.945 301.566 188.438 301.353 188.949C300.971 189.902 300.735 190.905 300.631 191.92H300.633Z" fill="#FFC5BD"/>
<path d="M320.258 191.639L321.018 184.534C325.315 184.994 339.691 184.528 342.298 184.808L341.105 195.961C336.683 195.252 328.095 193.794 320.32 191.653L320.258 191.641V191.639Z" fill="#FFC5BD"/>
<path d="M341.577 195.977C344.675 195.977 347.186 193.466 347.186 190.369C347.186 187.271 344.675 184.76 341.577 184.76C338.48 184.76 335.969 187.271 335.969 190.369C335.969 193.466 338.48 195.977 341.577 195.977Z" fill="#FFC5BD"/>
<path d="M322.762 190.88C324.297 189.642 324.538 187.393 323.299 185.858C322.061 184.322 319.812 184.081 318.276 185.32C316.741 186.558 316.5 188.807 317.739 190.343C318.977 191.878 321.226 192.119 322.762 190.88Z" fill="#FFC5BD"/>
<path d="M361.715 158.169C363.37 154.14 361.446 149.531 357.417 147.875C353.388 146.22 348.779 148.144 347.123 152.173C345.467 156.202 347.391 160.811 351.421 162.467C355.45 164.123 360.059 162.199 361.715 158.169Z" fill="#FFC5BD"/>
<path d="M344.86 195.474C347.621 194.108 348.752 190.762 347.385 188.001C346.019 185.241 342.674 184.11 339.913 185.476C337.152 186.843 336.022 190.188 337.388 192.949C338.754 195.71 342.1 196.84 344.86 195.474Z" fill="#FFC5BD"/>
<path d="M346.932 152.631L346.874 152.9C344.112 165.816 341.33 176.152 337.102 188.665L347.669 192.235L347.726 192.114C353.368 180.171 357.596 170.326 361.828 157.816L361.874 157.68L346.93 152.631H346.932Z" fill="#FFC5BD"/>
<path d="M376.04 182.678C376.792 167.791 376.51 151.196 363.085 141.508C360.3 142.527 351.748 145.544 351.748 145.544C351 146.185 348.103 149.483 346.563 151.503C342.805 156.429 340.921 161.246 340.581 166.291C340.384 169.18 341.304 172.215 341.408 175.971C341.554 181.337 341.285 187.241 340.719 192.853C340.574 194.286 338.427 206.906 337.746 209.914C345.396 210.689 359.955 216.172 362.709 216.502C365.332 216.815 369.393 217.471 371.158 219.675C373.095 211.769 374.1 203.666 374.954 195.569C375.409 191.27 375.823 186.975 376.04 182.676V182.678Z" fill="#DDB35F"/>
<path d="M352.651 144.505L352.181 144.68L348.312 148.445L351.893 146.329L352.651 144.505Z" fill="#F2F2F2"/>
<path d="M357.467 136.23C361.588 135.134 364.83 131.303 365.231 127.058C365.117 131.622 367.63 135.969 371.287 138.702C373.192 140.124 375.271 142.925 374.527 146.328C379.449 139.901 381.431 131.311 379.825 123.377C379.05 119.555 377.381 115.761 374.373 113.277C371.365 110.794 366.644 109.774 363.276 111.746C359.99 108.847 355.81 107.259 350.895 107.733C348.345 107.98 345.725 109.601 344.685 111.569C342.247 111.391 340.031 112.364 338.33 114.495C336.377 116.943 336.049 121.558 337.067 124.522C338.084 127.484 340.816 130.264 342.953 131.961C344.434 133.137 346.916 133.661 348.767 134.045C352.113 134.741 354.118 135.533 357.465 136.228L357.467 136.23Z" fill="#273238"/>
<path d="M365.787 118.935C366.069 118.919 366.294 118.689 366.305 118.4C366.397 115.497 365.049 112.773 363.673 111.363C363.457 111.144 363.109 111.141 362.889 111.352C362.67 111.566 362.668 111.916 362.879 112.136C364.053 113.339 365.279 115.802 365.198 118.367C365.187 118.672 365.427 118.927 365.732 118.937C365.749 118.937 365.768 118.937 365.785 118.937L365.787 118.935Z" fill="#273238"/>
<path d="M352.03 146.731L351.859 146.014L351.855 145.97L348.051 130.583L358.639 126.46L360.319 132.01L363.408 142.304L352.03 146.731Z" fill="#FFC5BD"/>
<path d="M360.319 132.009C359.404 137.632 356.062 143.444 351.859 146.015L351.855 145.971L348.051 130.584L358.639 126.461L360.319 132.011V132.009Z" fill="#EF9B8F"/>
<path d="M353.273 113.298C346.597 112.711 341.901 115.721 340.901 121.175C340.029 125.93 340.919 132.729 342.898 137.139C344.575 140.878 346.852 142.877 350.048 142.161C353.305 141.43 356.459 138.973 358.236 136.429C360.177 133.648 362.615 129.955 363.056 125.942C363.582 119.684 360.777 113.958 353.273 113.298Z" fill="#FFC5BD"/>
<path d="M352.786 112.586C352.061 112.549 351.36 112.551 350.683 112.593C344.765 112.952 340.779 116.269 340.015 121.47C339.877 122.415 339.827 123.444 339.82 124.504C340.025 124.347 340.23 124.188 340.439 124.057C341.577 123.332 343.09 121.872 343.716 120.792C347.048 124.976 352.199 127.131 358.027 127.568C358.562 128.851 359.425 132.807 359.366 134.896L361.067 134.436C362.514 131.9 363.4 128.924 363.649 125.567C363.937 119.58 361.236 113.025 352.79 112.588L352.786 112.586Z" fill="#273238"/>
<path d="M357.832 126.536C356.702 127.562 355.883 128.941 355.392 130.384C354.155 129.302 353.635 127.472 354.113 125.901C355.093 125.684 355.966 125.644 356.936 125.905C357.055 125.937 357.176 125.974 357.27 126.054C357.364 126.133 357.422 126.267 357.381 126.382C357.418 126.432 357.794 126.486 357.832 126.536Z" fill="#273238"/>
<path d="M360.036 130.401C360.448 128.795 359.624 127.196 358.195 126.829C356.766 126.462 355.273 127.466 354.86 129.071C354.448 130.677 355.272 132.276 356.701 132.643C358.13 133.011 359.623 132.007 360.036 130.401Z" fill="#FFC5BD"/>
<path d="M356.046 130.303C356.033 130.303 356.02 130.303 356.006 130.305C355.853 130.301 355.734 130.173 355.736 130.021C355.743 129.759 355.799 129.503 355.903 129.248C356.246 128.41 357.075 127.848 357.905 127.919C358.045 127.93 358.185 127.961 358.322 128.011C358.594 128.111 358.834 128.283 359.016 128.51C359.11 128.629 359.091 128.805 358.972 128.899C358.855 128.995 358.682 128.974 358.581 128.855C358.462 128.702 358.31 128.594 358.134 128.529C358.045 128.498 357.953 128.477 357.863 128.469C357.245 128.429 356.67 128.838 356.415 129.457C356.338 129.647 356.296 129.839 356.292 130.031C356.288 130.171 356.181 130.284 356.048 130.298L356.046 130.303Z" fill="#EF9B8F"/>
<path d="M343.061 128.345L340.038 133.12C339.623 133.776 340.032 134.641 340.803 134.737L344.525 135.198L343.061 128.347V128.345Z" fill="#FFC5BD"/>
<path d="M344.531 128.721C344.028 128.642 343.556 128.985 343.476 129.488C343.397 129.991 343.739 130.464 344.243 130.543C344.746 130.622 345.218 130.28 345.298 129.776C345.377 129.273 345.035 128.801 344.531 128.721Z" fill="#273238"/>
<path d="M347.563 125.565C347.489 125.381 347.23 125.308 346.999 125.308C345.921 125.308 344.887 125.592 343.89 125.974C343.539 126.11 342.574 126.39 342.802 126.853C342.95 127.154 343.56 127.298 343.915 127.209C344.709 127.01 345.497 126.791 346.278 126.553C346.721 126.419 347.801 126.168 347.561 125.562L347.563 125.565Z" fill="#273238"/>
<path d="M343.656 133.03C342.944 132.863 342.313 132.466 341.851 131.885C341.308 131.204 341.064 130.35 341.162 129.485C341.364 127.697 342.985 126.408 344.772 126.611C345.636 126.709 346.413 127.139 346.957 127.82C347.5 128.501 347.744 129.356 347.646 130.22C347.548 131.087 347.117 131.862 346.436 132.405C345.755 132.949 344.901 133.193 344.036 133.095C343.907 133.08 343.781 133.057 343.656 133.03ZM345.083 126.978C344.97 126.951 344.855 126.933 344.738 126.92C343.121 126.736 341.655 127.904 341.471 129.521C341.381 130.304 341.603 131.075 342.096 131.693C342.587 132.309 343.291 132.7 344.072 132.788C344.855 132.878 345.626 132.656 346.244 132.163C346.86 131.672 347.251 130.97 347.339 130.187C347.429 129.404 347.207 128.633 346.714 128.015C346.296 127.49 345.726 127.129 345.081 126.978H345.083Z" fill="white"/>
<path d="M347.507 129.124C348.758 128.846 351.568 128.232 352.821 127.956C353.026 127.91 352.969 127.586 352.763 127.632C351.639 127.881 347.578 128.773 347.448 128.8C347.244 128.846 347.3 129.17 347.507 129.124Z" fill="white"/>
<path d="M343.56 136.847C344.233 136.847 345.095 136.602 345.645 136.103C345.757 136.001 345.766 135.825 345.663 135.713C345.561 135.6 345.381 135.594 345.273 135.694C344.746 136.172 343.769 136.379 343.219 136.262C343.069 136.235 342.923 136.325 342.891 136.473C342.858 136.623 342.954 136.77 343.102 136.801C343.238 136.83 343.393 136.845 343.558 136.845L343.56 136.847Z" fill="#EF9B8F"/>
<path d="M363.114 140.865L351.891 146.328L350.479 151.502L364.923 142.946L363.114 140.865Z" fill="#F2F2F2"/>
<path d="M371.354 159.995C373.307 156.1 371.733 151.361 367.839 149.408C363.945 147.455 359.205 149.029 357.252 152.924C355.3 156.818 356.874 161.558 360.768 163.51C364.662 165.463 369.402 163.889 371.354 159.995Z" fill="#FFC5BD"/>
<path d="M363.245 195.552C364.19 192.62 362.578 189.477 359.646 188.533C356.714 187.589 353.572 189.2 352.628 192.132C351.683 195.065 353.295 198.207 356.227 199.151C359.159 200.095 362.301 198.484 363.245 195.552Z" fill="#FFC5BD"/>
<path d="M356.495 155.153L356.483 155.429C355.862 168.623 354.586 179.928 352.453 192.965L363.46 194.765L363.497 194.636C367.119 181.933 369.9 170.877 372.039 157.842L372.062 157.7L356.495 155.153Z" fill="#FFC5BD"/>
<path d="M325.928 191.521L327.311 184.036C331.837 184.874 340.559 185.818 347.268 186.388C352.975 186.873 356.207 187.055 358.954 187.562L356.781 199.31C345.848 196.908 336.757 194.61 325.993 191.537L325.928 191.519V191.521Z" fill="#FFC5BD"/>
<path d="M360.735 198.538C363.589 196.883 364.561 193.228 362.906 190.373C361.25 187.519 357.595 186.547 354.74 188.202C351.886 189.857 350.914 193.513 352.569 196.367C354.225 199.222 357.88 200.194 360.735 198.538Z" fill="#FFC5BD"/>
<path d="M327.181 184.011C325.115 183.629 323.128 184.995 322.746 187.061C322.363 189.127 323.73 191.114 325.796 191.496C327.862 191.878 329.848 190.512 330.23 188.446C330.613 186.38 329.246 184.394 327.181 184.011Z" fill="#FFC5BD"/>
<path d="M329.842 188.593C330.447 186.714 329.415 184.7 327.537 184.094C325.658 183.488 323.644 184.52 323.038 186.399C322.432 188.278 323.464 190.292 325.343 190.898C327.222 191.503 329.236 190.471 329.842 188.593Z" fill="#FFC5BD"/>
<path d="M325.785 184.004C323.84 184.004 318.014 183.301 314.954 183.447C311.844 183.595 308.178 186.866 306.895 189.582L305.848 191.796C305.754 191.995 305.675 192.268 305.848 192.406C306.135 192.63 307.194 192.429 307.499 192.335C307.774 192.252 308.019 192.091 308.249 191.915C308.673 191.589 309.051 191.205 309.37 190.777C309.184 191.027 308.859 192.038 309.101 192.3C309.469 192.694 310.409 192.538 310.879 192.431C311.489 192.293 312.027 191.976 312.46 191.527C312.901 191.069 313.266 190.539 313.73 190.106C314.509 189.381 315.518 188.968 316.506 188.571C315.161 189.25 314.486 190.415 313.613 191.646C313.21 192.214 312.612 193.223 313.818 193.058C314.628 192.947 315.115 192.231 315.687 191.727C316.232 191.247 316.736 190.591 317.432 190.317C318.275 189.985 319.136 190.547 319.949 190.762C320.529 190.917 321.148 191.192 321.745 191.238C322.434 191.291 322.994 190.971 323.636 190.816C323.959 190.739 324.379 190.804 324.709 190.812C325.092 190.825 325.672 191 326.042 191.065C326.28 190.138 325.992 188.974 325.823 188.03C325.706 187.38 325.557 186.735 325.47 186.079C325.386 185.452 325.902 184.629 325.787 184.004H325.785Z" fill="#FFC5BD"/>
<path d="M280.748 307.685L284.383 294.673H274.247L271.797 303.181C271.317 304.731 270.569 305.928 269.263 306.534L260.308 310.574C258.158 311.57 258.869 314.791 261.238 314.791H281.439L280.75 307.685H280.748Z" fill="#FFC5BD"/>
<path d="M281.763 315.086C281.786 315.467 281.74 315.803 281.63 316.139C281.293 317.215 280.284 317.998 279.098 317.998H250.327C249.475 317.998 248.781 317.259 248.781 316.317C248.781 316.25 248.781 316.183 248.804 316.137C248.848 315.554 249.184 315.038 249.723 314.792L262.384 309.505C268.384 311.475 274.362 311.435 280.74 309.632C280.971 309.568 281.208 309.72 281.233 309.96L281.767 315.084L281.763 315.086Z" fill="#273238"/>
<path d="M281.629 316.14C281.293 317.216 280.284 317.999 279.098 317.999H250.327C249.475 317.999 248.781 317.259 248.781 316.317C248.781 316.25 248.781 316.184 248.804 316.138H281.632L281.629 316.14Z" fill="#273238"/>
<path d="M303.398 218.13C295.744 219.676 293.425 222.83 292.535 225.773C286.732 244.954 270.299 300.145 270.299 300.145L284.616 302.435C294.981 275.935 304.996 253.224 312.449 233.473L303.398 218.128V218.13Z" fill="#273238"/>
<path d="M341.453 242.716H354.641V245.885C354.641 247.092 353.661 248.072 352.453 248.072H343.638C342.431 248.072 341.451 247.092 341.451 245.885V242.716H341.453Z" fill="#A5A5A5"/>
<path d="M351.318 246.384H344.777V276.995H351.318V246.384Z" fill="#A5A5A5"/>
<path d="M352.703 267.772H343.387V303.207H352.703V267.772Z" fill="#A5A5A5"/>
<path d="M373.4 300.913H322.693C320.205 300.913 318.188 302.918 318.188 305.392V312.532H322.693V305.392H345.795V312.532H350.3V305.392H373.402V312.532H377.908V305.392C377.908 302.918 375.89 300.913 373.402 300.913H373.4Z" fill="#A5A5A5"/>
<path d="M377.405 317.997C380.445 317.997 382.909 315.549 382.909 312.528C382.909 309.508 380.445 307.06 377.405 307.06C374.365 307.06 371.9 309.508 371.9 312.528C371.9 315.549 374.365 317.997 377.405 317.997Z" fill="#A5A5A5"/>
<path d="M377.405 316.907C374.976 316.907 373 314.944 373 312.529C373 310.114 374.976 308.15 377.405 308.15C379.835 308.15 381.811 310.114 381.811 312.529C381.811 314.944 379.835 316.907 377.405 316.907ZM377.405 308.353C375.089 308.353 373.203 310.227 373.203 312.529C373.203 314.831 375.087 316.705 377.405 316.705C379.724 316.705 381.608 314.831 381.608 312.529C381.608 310.227 379.724 308.353 377.405 308.353Z" fill="#909090"/>
<path d="M348.043 317.997C351.083 317.997 353.548 315.549 353.548 312.528C353.548 309.508 351.083 307.06 348.043 307.06C345.003 307.06 342.539 309.508 342.539 312.528C342.539 315.549 345.003 317.997 348.043 317.997Z" fill="#999999"/>
<path d="M348.046 316.907C345.617 316.907 343.641 314.944 343.641 312.529C343.641 310.114 345.617 308.15 348.046 308.15C350.476 308.15 352.452 310.114 352.452 312.529C352.452 314.944 350.476 316.907 348.046 316.907ZM348.046 308.353C345.73 308.353 343.843 310.227 343.843 312.529C343.843 314.831 345.727 316.705 348.046 316.705C350.365 316.705 352.249 314.831 352.249 312.529C352.249 310.227 350.365 308.353 348.046 308.353Z" fill="#848484"/>
<path d="M318.688 317.997C321.728 317.997 324.192 315.549 324.192 312.528C324.192 309.508 321.728 307.06 318.688 307.06C315.648 307.06 313.184 309.508 313.184 312.528C313.184 315.549 315.648 317.997 318.688 317.997Z" fill="#A5A5A5"/>
<path d="M314.281 312.529C314.281 310.114 316.257 308.15 318.687 308.15C321.116 308.15 323.092 310.114 323.092 312.529C323.092 314.944 321.116 316.907 318.687 316.907C316.257 316.907 314.281 314.944 314.281 312.529ZM314.484 312.529C314.484 314.831 316.368 316.705 318.687 316.705C321.005 316.705 322.89 314.831 322.89 312.529C322.89 310.227 321.005 308.353 318.687 308.353C316.368 308.353 314.484 310.227 314.484 312.529Z" fill="#909090"/>
<path d="M389.63 161.33C388.027 160.964 386.041 161.812 385.682 163.571C384.345 170.112 383.008 176.65 381.671 183.19C379.935 191.678 378.199 200.167 376.463 208.654C376.33 209.306 376.202 209.96 376.06 210.612C375.661 212.45 375.133 214.259 374.473 216.02C374.33 216.398 374.211 216.839 374.015 217.198C373.992 217.242 373.971 217.281 373.956 217.313C373.867 217.515 373.777 217.718 373.683 217.919C373.282 218.785 372.852 219.638 372.388 220.471C371.54 221.998 370.589 223.469 369.543 224.868C369.52 224.9 369.488 224.948 369.457 224.998C369.355 225.144 369.219 225.284 369.11 225.418C368.837 225.754 368.559 226.088 368.275 226.414C367.661 227.122 367.019 227.81 366.355 228.472C365.743 229.082 365.11 229.673 364.458 230.241C364.132 230.525 363.802 230.805 363.468 231.077C363.307 231.208 363.146 231.336 362.986 231.465C362.908 231.524 362.833 231.582 362.756 231.639C361.31 232.716 359.787 233.694 358.206 234.561C357.444 234.979 356.669 235.371 355.881 235.737C355.685 235.829 355.486 235.919 355.286 236.006C355.242 236.025 355.175 236.061 355.108 236.098C354.705 236.297 354.245 236.435 353.83 236.589C352.18 237.201 350.49 237.703 348.773 238.085C347.904 238.279 347.03 238.442 346.151 238.576C346.095 238.584 346.024 238.603 345.955 238.622C345.787 238.647 345.599 238.647 345.449 238.664C344.927 238.722 344.402 238.768 343.878 238.806C342.917 238.872 341.956 238.9 340.993 238.9C337.937 238.902 321.397 238.9 312.753 238.9H312.229C310.549 238.9 308.941 240.377 309.018 242.11C309.096 243.85 310.428 245.321 312.229 245.321H340.091C345.574 245.321 351.022 244.55 356.151 242.547C363.533 239.662 369.862 234.908 374.692 228.628C378.523 223.646 381.136 217.76 382.396 211.61C382.943 208.938 383.488 206.267 384.033 203.595C385.03 198.719 386.028 193.844 387.025 188.966C388.027 184.057 389.032 179.15 390.035 174.241C390.618 171.39 391.201 168.539 391.783 165.685C391.811 165.549 391.84 165.414 391.867 165.278C392.203 163.638 391.393 161.731 389.625 161.328L389.63 161.33Z" fill="#BEBEBE"/>
<path d="M384.347 201.815C385.546 201.815 386.557 202.775 386.557 203.975C386.58 226.633 370.372 245.657 348.029 249.195L347.338 244.828C366.769 241.751 381.065 225.699 382.077 206.235H325.832C323.39 206.235 321.41 204.254 321.41 201.812H384.345L384.347 201.815Z" fill="#A5A5A5"/>
<path d="M305.222 193.338H278.01C276.239 193.338 274.718 192.072 274.396 190.33L269.723 164.968C269.483 163.665 270.484 162.464 271.808 162.464H296.436C298.231 162.464 299.77 163.744 300.096 165.51L305.224 193.336L305.222 193.338Z" fill="#848484"/>
<path d="M324.272 190.919H275.671C275.398 190.919 275.178 191.14 275.178 191.412V192.845C275.178 193.117 275.398 193.338 275.671 193.338H324.272C324.544 193.338 324.764 193.117 324.764 192.845V191.412C324.764 191.14 324.544 190.919 324.272 190.919Z" fill="#69B0E8"/>
<path d="M303.457 193.338H276.244C274.473 193.338 272.952 192.072 272.631 190.33L267.958 164.968C267.717 163.665 268.718 162.464 270.042 162.464H294.671C296.465 162.464 298.005 163.744 298.331 165.51L303.459 193.336L303.457 193.338Z" fill="#E5E5E5"/>
<path d="M281.92 176.311C282.919 176.05 283.957 176.971 284.237 178.368C284.517 179.764 283.934 181.107 282.936 181.368C281.937 181.629 280.899 180.708 280.619 179.311C280.339 177.913 280.922 176.572 281.92 176.311Z" fill="white"/>
<path d="M177.06 290.326L176.761 299.118C176.717 300.43 176.776 301.596 175.564 302.103L169.038 305.308C165.631 306.737 166.653 310.488 170.346 310.488H187.394V305.295L187.766 290.328H177.058L177.06 290.326Z" fill="#FFC5BD"/>
<path d="M185.652 304.885C185.919 304.734 186.529 304.383 186.73 304.302C187.413 304.026 188.094 304.693 188.094 305.422V314.089C188.094 314.82 187.503 315.411 186.771 315.411H154.667C153.71 315.411 152.933 314.636 152.933 313.677C152.933 313.562 152.956 313.426 152.979 313.311C153.094 312.787 153.457 312.332 153.982 312.102L173.104 302.836C174.163 302.311 174.977 302.719 175.18 303.661C175.514 305.213 176.864 306.157 180.045 306.117C182.356 306.088 184.371 305.608 185.652 304.881V304.885Z" fill="#273238"/>
<path d="M188.094 313.315V314.09C188.094 314.819 187.501 315.412 186.771 315.412H154.667C153.71 315.412 152.933 314.637 152.933 313.678C152.933 313.563 152.956 313.427 152.979 313.312H188.094V313.315Z" fill="#273238"/>
<path d="M220.891 293.525L222.838 310.882H233.148L231.202 293.525H220.891Z" fill="#FFC5BD"/>
<path d="M244.084 314.895C243.775 316 242.735 316.848 240.569 317.002C237.496 317.201 229.293 316.892 225.203 316.317C222.704 315.985 221.842 315.381 221.754 313.834C221.731 313.458 221.71 313.038 221.687 312.574C221.643 310.65 221.672 308.459 221.771 306.268C221.792 305.804 222.324 305.538 222.7 305.848C223.805 306.731 224.515 307.032 225.706 307.107C227.02 307.191 228.19 306.487 228.144 305.321C228.096 304.105 229.117 303.729 231.35 303.729C232.677 303.729 233.517 303.752 235.374 305.388C237.452 307.245 242.691 311.49 243.577 312.309C244.13 312.816 244.396 313.877 244.084 314.895Z" fill="#273238"/>
<path d="M244.086 314.895C243.777 316 242.737 317.061 240.57 317.216C237.497 317.414 229.294 317.105 225.204 316.531C222.706 316.198 221.843 315.382 221.755 313.834C221.732 313.458 221.712 313.038 221.689 312.574C222.175 313.458 223.082 314.189 224.805 314.431C229.094 315.073 238.623 315.315 241.851 315.139C242.624 315.096 243.376 315.029 244.084 314.897L244.086 314.895Z" fill="#273238"/>
<path d="M234.662 300.85L230.658 237.031L226.618 172.626L211.682 163.583L197.341 170.65L208.329 237.031L218.895 300.85H234.662Z" fill="#273238"/>
<path d="M190.006 300.85L197.28 237.031L204.844 170.644L190.52 163.583L175.802 182.638L174.903 237.031L174.241 300.85H190.006Z" fill="#273238"/>
<path d="M201.152 197.331C200.887 197.331 200.653 197.139 200.609 196.87L196.678 173.121C196.628 172.82 196.83 172.534 197.133 172.486C197.436 172.433 197.72 172.638 197.768 172.941L201.699 196.69C201.75 196.991 201.547 197.277 201.244 197.325C201.213 197.331 201.183 197.333 201.152 197.333V197.331Z" fill="#273238"/>
<path d="M178.732 97.738C175.279 101.189 175.16 106.712 178.375 110.307C178.49 110.434 178.609 110.562 178.732 110.683C182.306 114.259 188.103 114.259 191.679 110.683C195.255 107.109 195.255 101.312 191.679 97.7359C188.105 94.1597 182.308 94.1597 178.732 97.7359V97.738Z" fill="#FFC5BD"/>
<path d="M157.091 136.541C153.608 135.594 151.552 132.003 152.499 128.519C153.446 125.036 157.037 122.98 160.521 123.927C164.004 124.874 166.06 128.465 165.113 131.949C164.166 135.432 160.575 137.488 157.091 136.541Z" fill="#FFC5BD"/>
<path d="M191.676 110.685C182.071 120.411 174.444 126.481 163.582 134.776L163.436 134.887L154.192 125.643C163.918 116.041 170.321 108.744 178.618 97.8816L178.729 97.7354L191.674 110.682L191.676 110.685Z" fill="#FFC5BD"/>
<path d="M175.944 99.4146C180.79 94.0106 187.312 93.1687 191.803 97.3946C195.06 100.461 194.93 106.273 193.449 109.861C193.008 110.927 191.214 113.166 190.485 114.035C187.951 117.062 176.967 128.043 171.655 132.704L158.015 120.751C164.087 113.855 170.901 105.034 175.944 99.4125V99.4146Z" fill="#373C3F"/>
<path d="M131.136 115.101L135.719 108.243C139.216 110.52 145.025 114.809 149.823 117.698C155.179 120.923 159.913 123.616 162.604 124.994L155.409 135.76C147.509 130.402 136.768 121.466 131.136 115.101Z" fill="#FFC5BD"/>
<path d="M152.509 131.555C151.824 128.046 154.113 124.646 157.622 123.96C161.131 123.275 164.531 125.564 165.216 129.073C165.902 132.582 163.612 135.982 160.104 136.668C156.595 137.353 153.194 135.064 152.509 131.555Z" fill="#FFC5BD"/>
<path d="M133.306 115.712C131.029 115.712 129.183 113.866 129.183 111.588C129.183 109.311 131.029 107.465 133.306 107.465C135.584 107.465 137.43 109.311 137.43 111.588C137.43 113.866 135.584 115.712 133.306 115.712Z" fill="#FFC5BD"/>
<path d="M129.307 111.738C129.274 109.5 131.062 107.659 133.3 107.626C135.538 107.593 137.378 109.381 137.411 111.619C137.444 113.857 135.657 115.697 133.419 115.73C131.181 115.763 129.34 113.976 129.307 111.738Z" fill="#FFC5BD"/>
<path d="M175.417 183.34H190.185C190.914 183.34 191.579 182.987 191.999 182.41L193.524 180.2L195.447 182.101C196.243 182.897 197.327 183.34 198.432 183.34H227.684C227.418 176.53 226.8 161.893 226.556 159.196C225.561 148.804 226.157 136.976 227.063 121.456L227.682 97.6878C223.723 95.1018 216.383 91.8075 209.685 89.9714C208.802 89.7291 207.939 89.5076 207.076 89.3301L193.014 90.0821C191.775 90.3912 190.382 90.855 188.947 91.4524C184.504 93.2865 179.572 96.1838 177.184 98.1516L178.753 122.914C177.669 140.801 176.653 165.01 175.415 183.338L175.417 183.34Z" fill="#373C3F"/>
<path d="M213.559 109.133C215.002 113.956 219.959 116.766 224.793 115.606C224.967 115.565 225.138 115.519 225.309 115.467C230.304 113.971 233.141 108.709 231.643 103.714C230.147 98.7196 224.885 95.8829 219.891 97.3806C214.896 98.8763 212.059 104.138 213.557 109.133H213.559Z" fill="#FFC5BD"/>
<path d="M231.962 151.268C228.998 149.016 228.421 144.787 230.673 141.823C232.926 138.859 237.155 138.281 240.119 140.534C243.083 142.786 243.66 147.015 241.408 149.98C239.156 152.944 234.927 153.521 231.962 151.268Z" fill="#FFC5BD"/>
<path d="M231.642 103.717C235.636 115.373 240.99 132.201 242.467 143.782L242.496 143.968L229.582 147.837C225.271 134.992 220.134 121.874 213.631 109.307L213.554 109.135L231.64 103.719L231.642 103.717Z" fill="#FFC5BD"/>
<path d="M178.528 126.401C178.833 126.401 179.082 126.155 179.082 125.848V115.223C179.082 114.918 178.836 114.67 178.528 114.67C178.221 114.67 177.975 114.916 177.975 115.223V125.848C177.975 126.153 178.221 126.401 178.528 126.401Z" fill="#273238"/>
<path d="M169.384 120.764L171.652 132.705C168.997 135.648 163.7 138.562 161.644 139.107C159.589 139.65 155.265 138.539 153.209 136.77C151.154 135 130.499 116.94 130.499 116.94L137.432 108.239L158.012 120.75L169.382 120.762L169.384 120.764Z" fill="#373C3F"/>
<path d="M212.109 108.437C210.607 103.248 213.273 98.1097 219.017 96.4469C223.469 95.158 227.766 96.7853 230.279 99.9062C231.025 100.834 231.524 101.905 231.948 102.994C233.423 106.789 235.067 110.416 236.399 114.282C238.263 119.69 240.514 128.372 241.824 133.947L225.432 138.758C221.904 129.861 217.133 119.318 213.162 111.172L212.109 108.435V108.437Z" fill="#373C3F"/>
<path d="M111.601 104.229C111.708 103.957 111.896 103.752 112.132 103.654C112.242 103.608 112.364 103.585 112.493 103.585C112.754 103.585 113.013 103.681 113.233 103.771C113.763 103.986 114.287 104.212 114.814 104.438C115.902 104.905 117.028 105.386 118.16 105.766C119.717 106.286 121.087 106.539 122.355 106.539C122.409 106.539 122.463 106.539 122.516 106.539C122.181 106.366 121.885 106.19 121.308 105.683C121.03 105.436 120.751 105.154 120.606 104.772C120.469 104.402 120.479 103.857 120.832 103.535C121.026 103.36 121.306 103.266 121.64 103.266C121.947 103.266 122.305 103.345 122.616 103.485C124.275 104.22 124.613 104.285 126.499 104.477C126.819 104.509 127.145 104.525 127.471 104.54C128.239 104.575 129.378 104.617 130.134 104.876C132.371 105.643 134.226 107.299 135.645 108.354L130.911 114.932C129.077 113.873 127.088 113.328 124.661 113.238C123.746 113.205 122.098 113.259 121.847 113.267C121.218 113.29 120.241 113.031 119.859 112.764C118.812 112.031 116.901 110.412 115.284 109.539C114.803 109.28 114.31 109.054 113.842 108.801C113.164 108.436 112.481 108.012 112.257 107.245C112.205 107.065 112.184 106.877 112.165 106.687C112.146 106.501 112.127 106.326 112.075 106.167C112.021 106.006 111.931 105.858 111.835 105.699C111.758 105.572 111.68 105.444 111.618 105.309C111.474 104.989 111.467 104.575 111.603 104.233L111.601 104.229Z" fill="#FFC5BD"/>
<path d="M125.414 107.076C125.879 107.076 126.329 107.056 126.702 106.997C126.853 106.974 126.957 106.834 126.934 106.684C126.913 106.533 126.786 106.421 126.621 106.452C125.645 106.598 123.993 106.504 122.782 106.345C122.64 106.324 122.493 106.433 122.472 106.583C122.454 106.734 122.558 106.872 122.711 106.893C123.343 106.976 124.421 107.076 125.414 107.076Z" fill="#EF9B8F"/>
<path d="M141.904 113.983C141.941 114.378 142.292 114.666 142.687 114.628C143.082 114.591 143.37 114.24 143.333 113.845C143.295 113.45 142.944 113.162 142.549 113.2C142.154 113.237 141.866 113.588 141.904 113.983Z" fill="#273238"/>
<path d="M138.871 112.035C138.908 112.429 139.259 112.718 139.654 112.68C140.049 112.643 140.337 112.292 140.299 111.897C140.262 111.502 139.911 111.214 139.516 111.251C139.121 111.289 138.833 111.64 138.871 112.035Z" fill="#273238"/>
<path d="M186.67 106.842L183.134 109.958L193.835 145.62L214.574 111.792L211.347 107.326L217.492 101.732L209.688 89.9694C208.804 89.7271 207.942 89.5057 207.079 89.3281L193.016 90.0801C191.778 90.3893 190.384 90.853 188.949 91.4505L182.095 101.621L186.672 106.84L186.67 106.842Z" fill="#273238"/>
<path d="M188.428 95.6431L191.534 124.441L193.828 145.631L200.184 125.736L209.48 96.5936C210.602 93.3516 209.534 90.3268 207.088 88.9648L193.042 89.7064C189.85 90.7279 188.252 93.7735 188.426 95.6431H188.428Z" fill="white"/>
<path d="M191.537 124.441L193.831 145.631L200.188 125.736L197.681 100.895L200.148 99.424L196.359 95.0352L192.868 99.2736L194.585 100.844L191.537 124.441Z" fill="#273238"/>
<path d="M212.928 62.0211C212.352 60.6654 211.286 59.5374 209.845 59.2366C209.799 56.3873 207.587 54.311 205.239 53.4649C201.128 51.9839 196.325 51.8962 192.762 52.8675C190.437 53.5004 188.273 53.3104 187.257 52.8445C187.278 53.5673 187.598 54.2629 188.078 54.687C186.073 55.4787 183.725 55.4682 181.745 54.6243C181.523 57.0119 182.837 59.387 184.991 60.444C184.061 61.1041 182.791 61.336 181.707 60.983C182.543 63.5001 184.492 65.6621 187.021 66.4643L201.773 85.9476C205.063 83.5663 207.89 80.7107 210.027 77.3538C212.114 74.0721 213.344 70.2452 213.519 66.3598C213.586 64.8892 213.505 63.3748 212.93 62.0211H212.928Z" fill="#273238"/>
<path d="M196.357 95.0348C196.357 95.0348 206.109 92.8686 207.08 89.3529V89.3299L207.523 76.7066L207.744 70.2957L193.748 69.7881L193.04 89.5096L193.017 90.084C191.426 92.8915 196.355 95.0368 196.355 95.0368L196.357 95.0348Z" fill="#FFC5BD"/>
<path d="M207.517 76.7147C206.119 83.8483 200.088 89.0163 193.045 89.5156L193.74 69.792L207.742 70.2871L207.519 76.7126L207.517 76.7147Z" fill="#EF9B8F"/>
<path d="M184.426 73.077C184.039 71.2733 185.027 69.5317 186.633 69.1871C188.24 68.8424 189.856 70.0252 190.243 71.8289C190.63 73.6326 189.641 75.3741 188.035 75.7188C186.429 76.0634 184.813 74.8806 184.426 73.077Z" fill="#EF9B8F"/>
<path d="M210.581 67.7179C210.159 73.4394 208.546 78.2063 205.179 82.3883C203.896 83.9801 202.185 85.2836 200.236 86.0502C196.552 87.4978 191.745 86.9192 189.282 83.8819C187.089 81.1768 186.324 77.4648 186.14 73.9575C185.946 70.2496 186.046 66.5272 186.506 62.8465C187.156 57.6367 192.489 53.7576 199.614 54.3091C207.623 54.9295 211.076 61.0354 210.583 67.7158L210.581 67.7179Z" fill="#FFC5BD"/>
<path d="M199.628 53.6612C192.49 53.1201 186.574 57.0389 185.862 62.7668C185.753 63.4519 185.799 63.6065 185.799 63.6065C190.687 65.733 197.882 65.9148 203.073 64.5737L203.106 64.5256C203.355 66.2156 204.378 67.8742 205.496 68.5719L205.304 71.1141L206.737 73.9132L210.142 74.1702C210.699 72.2045 211.054 70.0821 211.23 67.7697C211.769 60.6569 207.278 54.2565 199.63 53.6653L199.628 53.6612Z" fill="#273238"/>
<path d="M210.582 75.0446C209.928 76.7701 208.152 77.6955 206.617 77.1126C205.082 76.5298 204.367 74.6603 205.021 72.9348C205.675 71.2094 207.451 70.284 208.986 70.8668C210.521 71.4496 211.236 73.3192 210.582 75.0446Z" fill="#FFC5BD"/>
<path d="M206.146 74.4004C206.146 74.4004 206.136 74.4004 206.129 74.4004C205.979 74.3795 205.872 74.2395 205.893 74.087C205.933 73.8008 206.027 73.523 206.169 73.264C206.645 72.3908 207.669 71.8853 208.511 72.0566C208.667 72.0879 208.816 72.1381 208.956 72.2091C209.238 72.3491 209.474 72.5663 209.647 72.8358C209.729 72.9653 209.689 73.1366 209.559 73.216C209.432 73.2995 209.261 73.2598 209.179 73.1303C209.062 72.9465 208.901 72.7982 208.711 72.7021C208.613 72.654 208.511 72.6185 208.402 72.5976C207.757 72.4786 207.013 72.8629 206.654 73.5293C206.543 73.7298 206.47 73.9429 206.441 74.1622C206.422 74.3085 206.29 74.4108 206.146 74.4004Z" fill="#EF9B8F"/>
<path d="M189.754 71.2153C189.265 71.0774 188.755 71.3636 188.618 71.8545C188.48 72.3454 188.766 72.853 189.257 72.9909C189.746 73.1287 190.255 72.8426 190.393 72.3517C190.531 71.8608 190.245 71.3532 189.754 71.2153Z" fill="#273238"/>
<path d="M197.195 71.7768C196.704 71.6389 196.197 71.9251 196.059 72.416C195.921 72.9069 196.207 73.4145 196.698 73.5524C197.189 73.6903 197.697 73.4041 197.835 72.9132C197.972 72.4223 197.686 71.9147 197.195 71.7768Z" fill="#273238"/>
<path d="M200.181 69.224C200.15 69.0276 199.914 68.9002 199.688 68.8501C198.635 68.614 197.566 68.66 196.509 68.8125C196.137 68.8668 195.134 68.9274 195.253 69.4308C195.331 69.7567 195.895 70.0324 196.262 70.024C197.081 70.0052 197.898 69.9655 198.713 69.9071C199.174 69.8736 200.281 69.8695 200.181 69.224Z" fill="#273238"/>
<path d="M191.255 68.7108C190.3 68.2241 189.247 68.0131 188.178 67.9108C187.879 67.8815 187.566 67.8188 187.269 67.8606C187.133 67.8794 187.004 67.9233 186.914 68.0131C186.807 68.1196 186.757 68.3954 186.809 68.5353C186.859 68.6732 186.987 68.786 187.129 68.8612C187.543 69.0785 188.061 69.1453 188.516 69.2393C189.011 69.3396 189.506 69.4315 190.003 69.5171C190.461 69.5944 191.539 69.8576 191.626 69.1996C191.654 68.9991 191.459 68.8173 191.252 68.7129L191.255 68.7108Z" fill="#273238"/>
<path d="M192.151 77.7338C192.114 77.7317 192.078 77.7213 192.043 77.7025C191.508 77.4226 191.167 77.0612 191.034 76.6267C190.912 76.2319 190.971 75.8078 191.205 75.3692C191.337 75.1227 191.533 74.8177 191.754 74.4751C192.022 74.0594 192.325 73.5894 192.584 73.1069C192.657 72.9732 192.824 72.9189 192.958 72.9941C193.091 73.0651 193.143 73.2343 193.07 73.368C192.801 73.8693 192.492 74.3498 192.218 74.7738C192.007 75.0997 191.819 75.39 191.692 75.6282C191.531 75.9332 191.485 76.2131 191.562 76.4617C191.652 76.7457 191.907 77.0069 192.302 77.2137C192.435 77.2847 192.49 77.4518 192.419 77.5855C192.366 77.6858 192.26 77.7422 192.151 77.7338Z" fill="#EF9B8F"/>
<path d="M190.899 79.4207L196.453 79.1533C195.427 81.4699 191.726 81.6809 190.899 79.4207Z" fill="white"/>
<path d="M193.568 180.255C193.871 180.255 194.119 180.01 194.122 179.705L194.385 145.633C194.387 145.328 194.142 145.077 193.835 145.075H193.831C193.528 145.075 193.28 145.32 193.278 145.625L193.014 179.697C193.012 180.002 193.257 180.253 193.564 180.255H193.568Z" fill="#273238"/>
<path d="M213.474 172.024L226.609 162.737C226.858 162.561 226.916 162.215 226.741 161.966C226.563 161.718 226.218 161.659 225.97 161.835L213.666 170.533L212.973 169.708C212.776 169.474 212.429 169.442 212.193 169.639C211.959 169.835 211.928 170.184 212.124 170.418L213.472 172.022L213.474 172.024Z" fill="#273238"/>
<path d="M206.501 179.011L184.65 193.048C184.061 193.427 183.274 193.301 182.676 192.733L166.97 177.804C165.988 176.87 165.973 175.228 166.943 174.605L188.793 160.568C189.382 160.19 190.169 160.315 190.767 160.883L206.473 175.813C207.455 176.747 207.47 178.388 206.501 179.011Z" fill="#E5E5E5"/>
<path d="M186.913 176.527C187.803 177.461 187.95 178.896 187.239 179.736C186.529 180.576 185.23 180.5 184.34 179.567C183.45 178.633 183.304 177.198 184.014 176.358C184.724 175.518 186.024 175.593 186.913 176.527Z" fill="white"/>
<path d="M171.29 177.938C171.411 177.787 171.466 177.583 171.445 177.357C171.422 177.119 171.317 176.887 171.15 176.707C170.816 176.348 170.338 176.315 170.081 176.63C169.96 176.778 169.905 176.985 169.926 177.211C169.949 177.449 170.054 177.681 170.219 177.861C170.509 178.172 170.908 178.239 171.175 178.044C171.215 178.015 171.253 177.98 171.288 177.938H171.29ZM170.975 176.931C171.081 177.046 171.148 177.194 171.163 177.345C171.175 177.482 171.142 177.608 171.069 177.698C170.91 177.894 170.607 177.869 170.396 177.639C170.29 177.524 170.223 177.376 170.208 177.225C170.196 177.088 170.229 176.962 170.3 176.872C170.321 176.847 170.344 176.826 170.367 176.808C170.534 176.687 170.787 176.73 170.971 176.931H170.975Z" fill="white"/>
<path d="M206.834 171.504C204.46 171.302 202.7 169.214 202.902 166.841C203.103 164.467 205.191 162.706 207.565 162.908C209.939 163.11 211.7 165.198 211.498 167.572C211.296 169.945 209.208 171.706 206.834 171.504Z" fill="#FFC5BD"/>
<path d="M186.876 176.676C186.959 176.515 187.095 176.354 187.29 176.181C187.469 176.022 187.67 175.884 187.881 175.74C188.238 175.496 188.616 175.289 188.996 175.084L189.671 174.71C190.502 174.243 191.355 173.762 192.115 173.186C190.928 173.731 189.798 174.222 188.637 174.646L188.188 174.809C187.191 175.16 186.723 174.901 186.506 174.623C186.184 174.224 186.312 173.635 186.59 173.286C186.648 173.213 186.709 173.148 186.778 173.087L186.945 172.956C187.129 172.818 187.34 172.709 187.626 172.563C188.865 171.943 190.057 171.201 191.213 170.482C192.148 169.9 193.082 169.321 194.045 168.797C194.505 168.544 195.094 168.201 195.572 167.782C196.117 167.303 196.401 167.111 196.456 166.614C196.464 166.532 196.456 166.466 196.431 166.403C196.395 166.309 196.297 166.238 196.165 166.177L193.423 163.65C193.441 163.65 193.462 163.645 193.479 163.645C193.613 163.645 193.736 163.643 193.828 163.633L194.444 163.547C194.776 163.499 195.108 163.449 195.534 163.409L196.648 163.297C197.554 163.203 198.311 163.134 199.102 163.138C199.953 163.142 200.705 163.46 201.448 163.719C202.781 164.18 204.337 163.833 205.158 163.395L209.516 170.829C207.961 171.629 206.501 172.358 205.71 173.244L205.348 173.651L204.816 174.215C204.816 174.215 204.408 174.61 204.247 174.75C204.241 174.754 203.982 174.978 203.805 175.12L203.401 175.429C203.251 175.54 203.094 175.648 202.94 175.755C202.023 176.377 201.053 176.9 200.23 177.326C199.806 177.547 199.466 177.844 199.104 178.157C198.883 178.349 198.657 178.546 198.411 178.727C197.686 179.254 196.913 179.724 196.144 180.181C195.783 180.399 195.451 180.589 195.069 180.681C194.885 180.724 194.651 180.735 194.404 180.701C194.087 180.656 193.859 180.528 193.751 180.336C193.686 180.225 193.631 180.035 193.736 179.768C193.817 179.565 193.964 179.413 194.185 179.218C194.193 179.21 194.793 178.698 194.793 178.698C195.267 178.283 195.773 177.804 196.18 177.261C194.996 178.12 193.713 178.84 192.353 179.413C191.68 179.695 190.891 179.949 190.072 179.655C189.865 179.567 189.698 179.429 189.602 179.271C189.491 179.08 189.376 178.698 189.867 178.266C189.986 178.161 190.12 178.074 190.235 178.007C190.454 177.877 190.686 177.75 190.924 177.62C191.511 177.301 192.117 176.971 192.589 176.555L192.965 176.208C193.118 176.072 193.742 175.575 193.886 175.446C193.955 175.385 194.02 175.327 194.079 175.27C193.441 175.579 192.806 175.893 192.169 176.208C191.233 176.672 190.298 177.136 189.351 177.581C188.856 177.815 187.935 178.251 187.294 177.907C186.991 177.744 186.786 177.416 186.774 177.06C186.774 176.933 186.807 176.804 186.872 176.672L186.876 176.676Z" fill="#FFC5BD"/>
<path d="M209.923 170.544L204.757 163.64C208.932 160.515 214.74 155.466 220.371 150.321C225.163 145.942 229.523 142.264 232.057 140.369L240.166 151.209C229.763 158.463 220.127 164.406 209.987 170.506L209.923 170.546V170.544Z" fill="#FFC5BD"/>
<path d="M233.004 151.953C229.65 150.303 228.269 146.246 229.919 142.892C231.569 139.538 235.626 138.157 238.98 139.808C242.334 141.458 243.715 145.515 242.065 148.869C240.414 152.223 236.358 153.604 233.004 151.953Z" fill="#FFC5BD"/>
<path d="M207.22 171.493C204.839 171.493 202.908 169.563 202.908 167.182C202.908 164.8 204.839 162.87 207.22 162.87C209.601 162.87 211.531 164.8 211.531 167.182C211.531 169.563 209.601 171.493 207.22 171.493Z" fill="#FFC5BD"/>
<path d="M227.686 130.264L225.432 138.757L227.168 143.489L206.31 161.278L213.554 170.54C213.554 170.54 234.03 156.555 240.537 151.602C243.146 149.615 243.944 146.394 243.672 144.069C243.403 141.744 242.39 136.317 241.822 133.946L227.686 130.264Z" fill="#373C3F"/>
<path d="M206.169 162.227C206.288 162.227 206.409 162.19 206.51 162.11C206.75 161.922 206.794 161.576 206.604 161.336L206.432 161.116L227.152 143.598L222.356 125.396C222.279 125.099 221.97 124.917 221.681 125.001C221.385 125.078 221.209 125.381 221.287 125.676L225.905 143.206L204.903 160.959L205.73 162.016C205.839 162.156 206.002 162.23 206.165 162.23L206.169 162.227Z" fill="#273238"/>
<path d="M208.404 89.9507L201.551 99.0312L196.357 95.0351L200.913 92.9817C203.297 91.908 205.417 90.3267 207.126 88.3506C207.5 88.8373 207.98 89.4431 208.402 89.9486L208.404 89.9507Z" fill="#ADB4C0"/>
<path d="M193.061 88.964C193.084 90.8169 193.842 92.5841 195.169 93.8771L196.355 95.0344L191.896 98.4164L191.484 90.4304L193.063 88.9619L193.061 88.964Z" fill="#ADB4C0"/>
<path d="M286.072 194.55H283.402V316.881H286.072V194.55Z" fill="#423717"/>
<path d="M122.644 194.55H119.975V316.881H122.644V194.55Z" fill="#423717"/>
<path d="M343.289 192.238H62.7539V196.865H343.289V192.238Z" fill="#423717"/>
<path d="M63.2877 246.213H28.927C27.7196 246.213 26.7399 245.233 26.7399 244.026V240.857H65.4727V244.026C65.4727 245.233 64.493 246.213 63.2856 246.213H63.2877Z" fill="#A6A6A6"/>
<path d="M42.8346 275.138H49.375L49.375 244.527H42.8346V275.138Z" fill="#A6A6A6"/>
<path d="M41.4451 301.353H50.7617L50.7617 265.918H41.4451V301.353Z" fill="#A6A6A6"/>
<path d="M20.7501 299.054H71.4565C73.9444 299.054 75.9623 301.059 75.9623 303.532V310.672H71.4565V303.532H48.3551V310.672H43.8493V303.532H20.748V310.672H16.2422V303.532C16.2422 301.059 18.2601 299.054 20.748 299.054H20.7501Z" fill="#A6A6A6"/>
<path d="M16.7465 316.142C19.7864 316.142 22.2508 313.693 22.2508 310.673C22.2508 307.653 19.7864 305.204 16.7465 305.204C13.7065 305.204 11.2422 307.653 11.2422 310.673C11.2422 313.693 13.7065 316.142 16.7465 316.142Z" fill="#A6A6A6"/>
<path d="M12.3418 310.672C12.3418 308.258 14.3179 306.294 16.7473 306.294C19.1767 306.294 21.1529 308.258 21.1529 310.672C21.1529 313.087 19.1767 315.051 16.7473 315.051C14.3179 315.051 12.3418 313.087 12.3418 310.672ZM12.5465 310.672C12.5465 312.974 14.4307 314.848 16.7494 314.848C19.0681 314.848 20.9523 312.974 20.9523 310.672C20.9523 308.37 19.0681 306.497 16.7494 306.497C14.4307 306.497 12.5465 308.37 12.5465 310.672Z" fill="#848484"/>
<path d="M46.1059 316.142C49.1458 316.142 51.6102 313.693 51.6102 310.673C51.6102 307.653 49.1458 305.204 46.1059 305.204C43.0659 305.204 40.6016 307.653 40.6016 310.673C40.6016 313.693 43.0659 316.142 46.1059 316.142Z" fill="#A6A6A6"/>
<path d="M41.6992 310.672C41.6992 308.258 43.6753 306.294 46.1048 306.294C48.5342 306.294 50.5103 308.258 50.5103 310.672C50.5103 313.087 48.5342 315.051 46.1048 315.051C43.6753 315.051 41.6992 313.087 41.6992 310.672ZM41.9039 310.672C41.9039 312.974 43.7881 314.848 46.1068 314.848C48.4255 314.848 50.3097 312.974 50.3097 310.672C50.3097 308.37 48.4255 306.497 46.1068 306.497C43.7881 306.497 41.9039 308.37 41.9039 310.672Z" fill="#848484"/>
<path d="M75.4652 316.142C78.5052 316.142 80.9696 313.693 80.9696 310.673C80.9696 307.653 78.5052 305.204 75.4652 305.204C72.4253 305.204 69.9609 307.653 69.9609 310.673C69.9609 313.693 72.4253 316.142 75.4652 316.142Z" fill="#A6A6A6"/>
<path d="M75.4641 315.051C73.0347 315.051 71.0586 313.087 71.0586 310.672C71.0586 308.258 73.0347 306.294 75.4641 306.294C77.8935 306.294 79.8697 308.258 79.8697 310.672C79.8697 313.087 77.8935 315.051 75.4641 315.051ZM75.4641 306.497C73.1475 306.497 71.2612 308.37 71.2612 310.672C71.2612 312.974 73.1454 314.848 75.4641 314.848C77.7828 314.848 79.667 312.974 79.667 310.672C79.667 308.37 77.7828 306.497 75.4641 306.497Z" fill="#848484"/>
<path d="M7.29712 217.9C8.04496 221.284 9.13746 224.66 11.1449 227.484C13.5639 230.887 17.1505 233.281 20.8563 235.201C29.6653 239.777 40.2874 240.964 51.3127 241.873C56.9612 242.338 62.7161 242.735 68.3855 243.477H110.074C110.816 243.477 111.49 243.174 111.981 242.689C112.305 242.366 112.541 241.962 112.668 241.509C110.268 241.085 109.113 240.761 106.815 240.782C99.1866 240.843 91.1108 240.77 84.1296 238.085C82.0804 237.304 80.1273 236.293 78.3058 234.998C71.1408 229.903 67.3473 221.155 65.9999 212.473C64.6442 203.785 65.4067 194.93 65.5069 186.14C65.6156 177.352 65.6678 169.705 61.7991 161.813L2.57617 159.991C9.55107 177.824 3.18195 199.196 7.29294 217.898L7.29712 217.9Z" fill="#BEBEBE"/>
<path d="M95.5731 243.477H110.074C111.564 243.477 112.771 242.269 112.771 240.78C112.771 239.291 111.564 238.083 110.074 238.083H95.5731C79.7537 238.083 66.9298 225.259 66.9298 209.44V186.188C66.9298 177.837 65.9815 170.72 64.4085 163.899C64.0618 162.397 62.5306 161.495 61.0474 161.913C59.6667 162.303 58.8311 163.703 59.1528 165.1C60.6213 171.493 61.5383 178.332 61.5383 186.186V209.438C61.5383 228.236 76.777 243.473 95.5731 243.473V243.477Z" fill="#69B0E8"/>
<path d="M1.96137 160.093C3.4445 159.676 4.97567 160.578 5.32243 162.078C6.89539 168.898 7.84376 177.839 7.84376 186.188V209.44C7.84376 225.259 20.6676 238.083 36.487 238.083H110.073C111.563 238.083 112.77 239.291 112.77 240.78C112.77 241.029 112.737 241.279 112.67 241.507C112.542 241.958 112.306 242.363 111.983 242.687C111.49 243.172 110.817 243.475 110.075 243.475H36.4891C17.6909 243.475 2.45435 228.236 2.45435 209.44V186.188C2.45435 178.332 1.53732 169.671 0.068809 163.279C-0.252884 161.879 0.582685 160.48 1.96346 160.091L1.96137 160.093Z" fill="#A6A6A6"/>
<path d="M100.901 289.389L99.6892 298.181C99.5409 299.746 99.5848 300.658 100.796 301.166L107.322 304.37C110.729 305.799 109.708 309.551 106.014 309.551H88.9668V304.356L90.4102 289.389H100.901Z" fill="#FFC5BD"/>
<path d="M90.5095 303.947C90.2567 303.797 89.676 303.446 89.4839 303.364C88.8259 303.089 88.0864 303.755 88.0216 304.484L87.2592 313.151C87.1944 313.882 87.7354 314.473 88.4645 314.473H120.569C121.526 314.473 122.37 313.698 122.453 312.74C122.464 312.625 122.453 312.489 122.439 312.374C122.372 311.85 122.046 311.394 121.542 311.164L103.235 301.898C102.222 301.374 101.372 301.781 101.086 302.723C100.614 304.275 99.1827 305.219 96.0055 305.18C93.6972 305.15 91.7253 304.67 90.5074 303.943L90.5095 303.947Z" fill="#273238"/>
<path d="M87.3281 312.377L87.2592 313.152C87.1944 313.881 87.7354 314.474 88.4645 314.474H120.569C121.526 314.474 122.37 313.699 122.453 312.741C122.464 312.626 122.453 312.49 122.439 312.375H87.3239L87.3281 312.377Z" fill="#273238"/>
<path d="M66.7609 293.021V310.409L56.0469 310.223L56.5064 305.266L56.7425 292.848L66.7609 293.021Z" fill="#FFC5BD"/>
<path d="M76.9051 314.598C76.4372 315.694 75.2778 316.523 73.0907 316.64C69.9887 316.785 61.8315 316.333 57.8249 315.69C55.3746 315.316 54.5975 314.698 54.7312 313.152C54.7626 312.776 54.8002 312.358 54.844 311.894C55.0738 309.975 55.4164 307.788 55.8279 305.605C55.9156 305.143 56.4838 304.886 56.816 305.202C57.7957 306.104 58.462 306.415 59.6423 306.511C60.9437 306.616 62.2137 305.937 62.3328 304.771C62.4581 303.558 63.5318 303.2 65.7649 303.238C67.0914 303.261 67.929 303.299 69.5521 304.963C71.3653 306.852 75.9985 311.178 76.7672 312.009C77.2477 312.525 77.3605 313.591 76.9072 314.6L76.9051 314.598Z" fill="#273238"/>
<path d="M76.9053 314.597C76.4374 315.693 75.2488 316.736 73.0596 316.851C69.9575 316.995 61.8003 316.544 57.7938 315.9C55.3435 315.526 54.5977 314.695 54.7293 313.149C54.7607 312.773 54.7982 312.355 54.8421 311.892C55.2014 312.781 56.0056 313.525 57.6935 313.799C61.8901 314.513 71.3843 314.923 74.6367 314.801C75.4159 314.77 76.1783 314.718 76.9032 314.597H76.9053Z" fill="#273238"/>
<path d="M67.339 209.249L69.7601 210.6L104.117 219.839C110.926 221.671 115.198 228.414 113.945 235.354L102.558 298.362H86.6615L90.4696 240.885L43.3311 236.214L43.1055 209.251L56.9947 203.771L67.339 209.251V209.249Z" fill="#273238"/>
<path d="M53.2963 299.167H69.5042L73.7072 231.305C74.0372 225.969 70.9184 221.021 65.9635 219.02L49.929 212.316L49.5676 209.469L33.6709 204.928L21.998 213.831V223.479C21.998 231.275 28.1207 237.699 35.9082 238.071L52.1913 238.85L53.2963 299.167Z" fill="#273238"/>
<path d="M79.4521 149.893C80.225 154.1 77.5637 158.144 73.4569 159.138C73.3107 159.174 73.1623 159.205 73.0119 159.232C68.6545 160.032 64.4725 157.15 63.6724 152.792C62.8723 148.435 65.755 144.253 70.1125 143.453C74.47 142.653 78.652 145.535 79.4521 149.893Z" fill="#FFC5BD"/>
<path d="M83.5992 188.272C84.4425 185.223 82.6544 182.068 79.6055 181.225C76.5566 180.382 73.4013 182.17 72.5581 185.219C71.7148 188.268 73.5029 191.423 76.5518 192.266C79.6007 193.109 82.756 191.321 83.5992 188.272Z" fill="#FFC5BD"/>
<path d="M63.6759 152.792C65.7669 164.586 68.6768 176.219 72.3846 187.606L72.4347 187.759L83.7003 185.688C81.461 173.922 80.0447 162.015 79.4619 150.051L79.4535 149.891L63.6738 152.79L63.6759 152.792Z" fill="#FFC5BD"/>
<path d="M81.1751 191.539C83.8294 189.818 84.5858 186.271 82.8648 183.616C81.1437 180.962 77.5969 180.206 74.9427 181.927C72.2884 183.648 71.5319 187.195 73.2529 189.849C74.974 192.503 78.5209 193.26 81.1751 191.539Z" fill="#FFC5BD"/>
<path d="M95.8784 186.127L94.8026 193.38L78.4004 192.425L80.1718 181.381L95.8784 186.127Z" fill="#FFC5BD"/>
<path d="M99.0256 189.816C99.0475 187.791 97.4241 186.132 95.3995 186.11C93.3749 186.088 91.7159 187.712 91.694 189.737C91.6721 191.761 93.2956 193.42 95.3201 193.442C97.3447 193.464 99.0037 191.84 99.0256 189.816Z" fill="#FFC5BD"/>
<path d="M97.1362 185.535C99.129 185.828 100.51 187.681 100.217 189.673C99.9249 191.666 98.072 193.047 96.0792 192.754C94.0864 192.462 92.7056 190.609 92.9981 188.616C93.2905 186.623 95.1434 185.243 97.1362 185.535Z" fill="#FFC5BD"/>
<path d="M96.8581 188.439C97.2404 187.1 98.2389 186.058 99.7952 185.661C101.272 185.285 102.914 185.339 104.385 185.722C107.388 186.503 110.288 188.815 110.981 191.936C110.981 191.94 110.981 191.944 110.983 191.949C111.123 192.582 110.624 193.177 109.977 193.177H99.8829C99.3544 193.177 98.8363 193.006 98.4019 192.709C97.7271 192.247 96.9542 191.558 96.7704 190.737C96.6075 190 96.6534 189.164 96.8581 188.439Z" fill="#69B0E8"/>
<path d="M95.9609 192.737C95.9609 192.737 98.7204 193.154 98.992 193.202C99.4996 193.294 100.064 193.459 100.58 193.411C101.173 193.355 101.392 192.847 101.123 192.352C100.897 191.941 100.475 191.673 100.043 191.492C99.6103 191.31 99.1507 191.193 98.7308 190.982C98.2922 190.761 97.6133 190.215 97.7386 189.643C97.866 189.064 98.6891 189 99.1319 188.824C99.5058 188.676 99.8714 188.502 100.249 188.36C100.262 188.356 100.277 188.35 100.289 188.354C100.302 188.356 100.31 188.365 100.318 188.373C100.448 188.482 100.577 188.586 100.703 188.699C100.868 188.847 101.033 188.995 101.2 189.142C102.483 190.251 103.084 192.156 104.636 192.975C105.422 193.388 106.174 192.891 106.253 191.995C106.301 191.456 106.142 190.994 105.917 190.524C105.227 189.089 104.536 187.669 103.788 186.265C103.262 185.279 102.691 184.072 101.499 183.804C100.634 183.61 99.792 184.026 99.0296 184.379C98.1982 184.761 96.3453 185.513 96.3453 185.513C96.3411 185.528 95.9609 192.745 95.9609 192.745V192.737Z" fill="#FFC5BD"/>
<path d="M104.803 184.434C105.205 184.394 105.624 184.372 105.994 184.532C106.483 184.745 106.788 185.232 107.06 185.692C108.148 187.536 109.199 189.4 110.216 191.284C110.621 192.034 110.036 192.679 109.226 192.673C108.417 192.667 107.682 192.186 107.112 191.612C105.815 190.308 105.106 188.466 103.661 187.327C103.285 187.033 102.867 186.79 102.531 186.452C100.855 184.768 103.657 184.549 104.806 184.434H104.803Z" fill="#FFC5BD"/>
<path d="M106.629 188.914C107.874 189.292 109.132 189.675 110.249 190.341C111.287 190.959 112.029 190.044 111.312 189.096C110.122 187.519 107.834 186.324 106.04 185.576C105.996 186.865 106.251 187.682 106.631 188.914H106.629Z" fill="#FFC5BD"/>
<path d="M79.728 149.805C78.8987 145.291 74.5663 142.304 70.0522 143.133C66.5532 143.777 63.9734 146.524 63.3739 149.826C63.1963 150.808 63.2381 151.809 63.3384 152.797C63.6893 156.237 64.0946 159.68 64.5667 163.122C65.2289 167.937 66.0477 172.729 67.0191 177.492L83.5905 175.704C82.0154 167.958 80.8122 160.141 79.985 152.281L79.7239 149.803L79.728 149.805Z" fill="#BB79C8"/>
<path d="M22.1068 208.192L25.3823 175.569L25.5974 145.115C29.2468 141.831 37.6003 137.766 44.734 136.421L63.0768 137.478C67.7455 138.857 73.6864 142.236 77.4444 145.443L75.0839 150.185L70.4402 181.379L71.0022 206.581L72.4853 211.334L69.7593 210.6C58.0801 210.6 52.2813 210.095 42.854 210.095C33.4267 210.095 30.1011 215.092 21.3047 215.092L22.1047 208.192H22.1068Z" fill="#BB79C8"/>
<path d="M59.7131 183.237C62.9405 182.37 68.543 182.62 71.8852 182.65C75.2839 182.679 79.4179 186.09 80.9324 188.994C81.3439 189.783 81.7554 190.573 82.1669 191.362C82.2776 191.576 82.3758 191.87 82.192 192.027C81.8912 192.284 80.7256 192.108 80.3913 192.02C80.0885 191.941 79.8127 191.776 79.5579 191.594C79.0816 191.258 78.6534 190.855 78.2857 190.402C78.5009 190.667 78.8977 191.755 78.645 192.05C78.2606 192.497 77.2308 192.365 76.7127 192.269C76.0422 192.146 75.4406 191.82 74.9497 191.35C74.4484 190.869 74.0285 190.308 73.5042 189.854C72.6247 189.096 71.5051 188.689 70.4126 188.298C71.9082 188.981 72.6916 190.224 73.6964 191.525C74.1601 192.129 74.8536 193.201 73.5334 193.073C72.6435 192.988 72.0837 192.227 71.4382 191.703C70.822 191.202 70.2476 190.508 69.4767 190.241C68.543 189.915 67.6301 190.562 66.7528 190.834C66.1261 191.028 65.4639 191.354 64.8143 191.429C64.0664 191.515 63.5567 191.243 62.6961 191.279C61.8543 191.312 60.9372 191.78 60.0097 191.839C59.9784 190.803 59.6714 183.972 59.7152 183.237H59.7131Z" fill="#FFC5BD"/>
<path d="M77.2443 182.927C78.1467 183.069 78.7755 183.875 79.2852 184.633C79.6173 185.128 79.9411 185.632 80.2231 186.158C80.7495 187.138 81.1339 188.195 81.3574 189.283C81.3908 189.442 81.42 189.603 81.3929 189.764C81.2905 190.386 80.3986 190.564 79.8596 190.236C79.3186 189.908 79.0324 189.3 78.694 188.767C77.5681 186.998 75.5564 185.824 73.4613 185.715C73.0184 185.692 72.5066 185.682 72.2372 185.331C71.9948 185.018 72.0742 184.543 72.3103 184.226C73.1082 183.154 76.0097 182.732 77.2464 182.927H77.2443Z" fill="#FFC5BD"/>
<path d="M61.8318 191.234C63.8588 189.985 64.4891 187.329 63.2396 185.302C61.9902 183.275 59.334 182.644 57.307 183.894C55.28 185.143 54.6496 187.799 55.8991 189.827C57.1486 191.854 59.8047 192.484 61.8318 191.234Z" fill="#FFC5BD"/>
<path d="M72.1161 176.929H72.1014C71.8152 176.921 71.5876 176.683 71.5959 176.394L71.9636 162.737C71.9719 162.451 72.1829 162.25 72.4983 162.231C72.7845 162.24 73.0122 162.478 73.0039 162.766L72.6362 176.424C72.6278 176.706 72.3981 176.929 72.1161 176.929Z" fill="#273238"/>
<path d="M91.2247 193.787H127.595C129.366 193.787 130.887 192.521 131.209 190.779L135.882 165.418C136.122 164.114 135.121 162.913 133.797 162.913H100.011C98.2163 162.913 96.6768 164.194 96.3509 165.959L91.2227 193.785L91.2247 193.787Z" fill="#848484"/>
<path d="M72.1722 193.789H129.931C130.203 193.789 130.424 193.568 130.424 193.296V191.863C130.424 191.591 130.203 191.37 129.931 191.37H72.1722C71.9 191.37 71.6792 191.591 71.6792 191.863V193.296C71.6792 193.568 71.9 193.789 72.1722 193.789Z" fill="#848484"/>
<path d="M92.9865 193.787H129.357C131.128 193.787 132.649 192.521 132.97 190.779L137.643 165.418C137.884 164.114 136.883 162.913 135.559 162.913H101.772C99.9781 162.913 98.4386 164.194 98.1127 165.959L92.9844 193.785L92.9865 193.787Z" fill="#E5E5E5"/>
<path d="M118.558 179.346C119.11 178.024 118.486 176.504 117.164 175.952C115.842 175.4 114.322 176.023 113.77 177.345C113.217 178.668 113.841 180.187 115.163 180.74C116.485 181.292 118.005 180.668 118.558 179.346Z" fill="white"/>
<path d="M41.8589 154.043C41.0358 159.009 36.4736 162.424 31.5313 161.885C31.3558 161.866 31.1782 161.841 31.0007 161.812C25.8578 160.96 22.3797 156.099 23.232 150.954C24.0843 145.811 28.9452 142.333 34.0902 143.185C39.2331 144.037 42.7112 148.898 41.8589 154.043Z" fill="#FFC5BD"/>
<path d="M30.9384 193.691C31.1183 189.972 28.2497 186.812 24.5311 186.632C20.8125 186.452 17.6522 189.321 17.4723 193.039C17.2923 196.758 20.161 199.918 23.8796 200.098C27.5981 200.278 30.7585 197.41 30.9384 193.691Z" fill="#FFC5BD"/>
<path d="M23.2367 150.954C20.7488 163.022 17.5611 180.391 17.559 192.066L17.5527 192.254L30.8508 194.46C33.5058 181.174 36.9442 167.511 41.8072 154.223L41.8615 154.044L23.2367 150.954Z" fill="#FFC5BD"/>
<path d="M44.0314 153.483C44.8669 148.148 40.7539 143.071 34.8464 142.146C30.2675 141.43 26.2108 143.587 24.1114 147.001C23.4889 148.014 23.1296 149.14 22.8456 150.274C21.8617 154.224 20.6877 158.03 19.8563 162.035C18.6907 167.635 17.5522 176.532 16.959 182.226L35.8052 185.93C37.6894 176.672 41.1173 165.366 43.3337 156.328L44.0314 153.481V153.483Z" fill="#BB79C8"/>
<path d="M35.8039 186.487C35.783 186.487 35.76 186.487 35.737 186.483L33.1196 186.167C32.8167 186.132 32.5994 185.856 32.637 185.553C32.6746 185.25 32.9566 185.033 33.2512 185.071L35.3213 185.319L37.8489 164.253C37.8865 163.95 38.1789 163.737 38.463 163.77C38.7659 163.806 38.9832 164.081 38.9456 164.384L36.3532 186C36.3365 186.147 36.2613 186.278 36.1464 186.37C36.0482 186.447 35.9292 186.487 35.8059 186.487H35.8039Z" fill="#273238"/>
<path d="M55.1319 148.595C56.8281 148.641 58.4073 148.349 59.8299 147.722C62.5935 146.504 64.695 144.002 65.447 141.025C65.5201 140.728 65.3426 140.428 65.0459 140.352C64.743 140.279 64.4485 140.459 64.3733 140.753C63.7028 143.402 61.8373 145.629 59.3829 146.709C57.7347 147.436 55.769 147.647 53.8055 147.377C49.9995 146.857 44.9693 144.326 43.317 138.896C43.2272 138.604 42.9097 138.441 42.6277 138.527C42.3352 138.617 42.1702 138.924 42.2579 139.216C44.0648 145.146 49.5253 147.908 53.6551 148.472C54.1439 148.539 54.6348 148.581 55.1298 148.595H55.1319Z" fill="#273238"/>
<path d="M44.7326 136.421L53.9927 134.343L63.0754 137.476L63.0461 138.483C63.0169 141.236 61.0804 143.57 58.8996 144.497C57.4144 145.13 55.7871 145.222 54.2183 145.013C49.7689 144.422 45.3759 141.439 44.7305 136.419L44.7326 136.421Z" fill="#FFC5BD"/>
<path d="M42.5764 109.407C43.1363 107.949 44.5108 106.337 46.7898 105.823C47.2222 102.245 48.8202 99.9404 52.2231 98.4782C53.9339 97.7429 56.5513 97.5925 58.3248 98.1774C59.622 98.6035 60.7563 99.5916 61.2869 100.809C62.5068 99.6543 63.9649 98.756 65.7384 98.5054C68.8989 98.0604 72.3477 99.1049 74.1713 101.194C75.8842 103.157 76.0827 106.523 73.9708 108.054C76.137 109.441 77.0498 112.447 76.0096 114.77C74.9693 117.093 71.8067 118.486 69.3104 117.836L48.8495 125.816C46.1318 122.76 43.5123 117.556 42.4971 113.907C42.1503 112.664 42.1169 110.611 42.5785 109.407H42.5764Z" fill="#273238"/>
<path d="M46.9531 141.115L60.9363 142.009L61.2748 136.665L62.5281 116.971L48.547 116.081L48.1355 122.498L46.9531 141.115Z" fill="#FFC5BD"/>
<path d="M48.1348 122.498C48.822 129.734 54.3138 135.472 61.2741 136.665L62.5274 116.969L48.5463 116.081L48.1369 122.498H48.1348Z" fill="#EF9B8F"/>
<path d="M72.0402 121.851C72.6456 120.109 71.8784 118.259 70.3266 117.72C68.7748 117.181 67.0259 118.156 66.4205 119.899C65.815 121.641 66.5822 123.491 68.1341 124.03C69.6859 124.569 71.4347 123.594 72.0402 121.851Z" fill="#EF9B8F"/>
<path d="M46.7491 113.33C46.465 119.06 47.4802 123.99 50.3086 128.552C51.3865 130.29 52.9239 131.792 54.7642 132.793C58.2444 134.683 63.0865 134.696 65.9024 131.987C68.4111 129.572 69.6269 125.983 70.2389 122.524C70.8865 118.868 71.2437 115.16 71.2395 111.452C71.2354 106.203 66.4162 101.697 59.2784 101.371C51.2549 101.006 47.0791 106.64 46.747 113.33H46.7491Z" fill="#FFC5BD"/>
<path d="M59.3434 100.724C66.4938 101.064 71.8832 105.677 71.8874 111.45C71.9104 112.144 71.8477 112.29 71.8477 112.29C66.734 113.8 59.5732 113.099 54.5849 111.129L54.5577 111.076C54.1044 112.722 52.8845 114.243 51.6896 114.799L51.5685 117.345L49.8033 119.946L46.3942 119.783C46.0809 117.765 45.989 115.614 46.0997 113.297C46.4987 105.307 51.6813 100.371 59.3434 100.722V100.724Z" fill="#273238"/>
<path d="M49.5406 123.128C51.1365 122.738 52.0756 120.97 51.6381 119.178C51.2006 117.386 49.5521 116.249 47.9561 116.638C46.3602 117.028 45.4211 118.797 45.8586 120.589C46.2961 122.381 47.9446 123.518 49.5406 123.128Z" fill="#FFC5BD"/>
<path d="M50.3302 120.506C50.3302 120.506 50.3407 120.506 50.3469 120.506C50.4974 120.504 50.6206 120.377 50.6206 120.224C50.6164 119.94 50.56 119.656 50.4493 119.376C50.0817 118.451 49.1688 117.814 48.2727 117.889C48.1139 117.901 47.9593 117.933 47.811 117.985C47.5144 118.089 47.2533 118.275 47.0486 118.522C46.9525 118.641 46.9692 118.814 47.0882 118.91C47.2052 119.008 47.3786 118.992 47.4768 118.873C47.6146 118.704 47.7943 118.576 47.9927 118.505C48.0951 118.47 48.2037 118.447 48.3123 118.438C48.9536 118.401 49.6534 118.871 49.9333 119.579C50.019 119.794 50.065 120.013 50.067 120.231C50.067 120.377 50.1861 120.496 50.3302 120.502V120.506Z" fill="#EF9B8F"/>
<path d="M48.7178 123.039C49.4677 122.584 50.0568 121.711 50.368 120.639C50.7377 119.394 50.7921 117.76 50.1821 116.624L51.565 117.353C51.519 118.324 51.3623 119.292 51.1869 120.19C50.8401 121.878 50.8422 123.693 51.5211 125.274C51.9598 126.292 52.9666 126.981 53.8544 126.956C54.4978 126.941 55.0326 126.858 55.6404 126.642C59.5655 125.354 64.7586 125.705 68.3473 127.248C68.7338 127.413 68.9009 127.896 68.7254 128.276C68.0152 129.824 67.117 131.111 66.0474 132.138C64.4682 133.68 62.1516 134.455 59.5467 134.33C57.8234 134.248 56.1418 133.791 54.6524 132.991C52.8183 131.996 51.2516 130.482 50.1215 128.658C50.0004 128.464 49.898 128.263 49.7831 128.067C48.9956 126.548 48.6321 124.476 48.7199 123.035L48.7178 123.039Z" fill="#273238"/>
<path d="M66.9902 119.356C67.4937 119.281 67.9637 119.625 68.0389 120.129C68.1161 120.632 67.7694 121.102 67.266 121.178C66.7625 121.253 66.2925 120.908 66.2173 120.405C66.1421 119.901 66.4868 119.431 66.9902 119.356Z" fill="#273238"/>
<path d="M59.5371 119.002C60.0405 118.927 60.5105 119.272 60.5857 119.775C60.6609 120.279 60.3163 120.749 59.8128 120.824C59.3094 120.899 58.8394 120.555 58.7642 120.051C58.689 119.548 59.0337 119.078 59.5371 119.002Z" fill="#273238"/>
<path d="M56.8864 116.102C56.9407 115.912 57.1914 115.814 57.4233 115.791C58.497 115.684 59.554 115.862 60.5817 116.144C60.9431 116.242 61.9332 116.426 61.7515 116.911C61.6345 117.224 61.0413 117.429 60.6778 117.374C59.8673 117.255 59.061 117.117 58.2609 116.959C57.8076 116.869 56.7089 116.729 56.8864 116.102Z" fill="#273238"/>
<path d="M65.8071 116.688C66.814 116.322 67.8856 116.241 68.9593 116.27C69.258 116.278 69.5776 116.253 69.8659 116.333C69.9975 116.368 70.1208 116.427 70.2001 116.529C70.292 116.648 70.3087 116.926 70.2398 117.06C70.173 117.191 70.033 117.287 69.8826 117.344C69.446 117.509 68.9238 117.513 68.4601 117.549C67.9566 117.588 67.4532 117.617 66.9498 117.64C66.486 117.661 65.3852 117.789 65.3789 117.124C65.3789 116.924 65.592 116.765 65.8092 116.686L65.8071 116.688Z" fill="#273238"/>
<path d="M63.811 125.533C63.8486 125.533 63.8841 125.529 63.9217 125.516C64.4878 125.305 64.8701 124.986 65.056 124.572C65.2252 124.196 65.2189 123.77 65.0414 123.304C64.9411 123.043 64.7844 122.713 64.6069 122.347C64.3917 121.903 64.1473 121.399 63.951 120.891C63.8966 120.752 63.7379 120.676 63.5938 120.735C63.4538 120.789 63.3807 120.95 63.4371 121.092C63.6418 121.621 63.8883 122.134 64.1097 122.588C64.2789 122.939 64.4314 123.252 64.5275 123.503C64.6507 123.824 64.6612 124.108 64.5547 124.344C64.4335 124.616 64.1452 124.844 63.7275 124.998C63.5875 125.053 63.5123 125.211 63.5666 125.353C63.6063 125.46 63.7045 125.527 63.8131 125.533H63.811Z" fill="#EF9B8F"/>
<path d="M64.8446 127.359L59.3633 126.41C60.0965 128.835 63.7437 129.498 64.8446 127.359Z" fill="white"/>
<path d="M67.2216 123.625C65.4857 123.636 64.0652 122.23 64.0547 120.494C64.0443 118.758 65.4481 117.338 67.186 117.327C68.9219 117.317 70.3424 118.723 70.3528 120.458C70.3612 122.071 69.1517 123.41 67.5892 123.602C67.468 123.617 67.3469 123.625 67.2216 123.625ZM64.3556 120.492C64.3639 122.063 65.6507 123.335 67.2216 123.327C68.7924 123.318 70.0646 122.034 70.0562 120.461C70.0478 118.89 68.7611 117.618 67.1902 117.626C67.0774 117.626 66.9667 117.634 66.8581 117.647C65.4439 117.82 64.3493 119.032 64.3576 120.492H64.3556Z" fill="white"/>
<path d="M59.5749 123.262C58.7331 123.266 57.9414 122.942 57.3439 122.351C56.7465 121.76 56.4144 120.97 56.4102 120.129C56.406 119.287 56.7277 118.495 57.321 117.898C57.9121 117.3 58.7017 116.968 59.5436 116.964C61.2795 116.953 62.6999 118.359 62.7104 120.095C62.7145 120.937 62.3929 121.729 61.7996 122.326C61.2962 122.836 60.6486 123.151 59.9488 123.237C59.8256 123.252 59.7023 123.26 59.577 123.26L59.5749 123.262ZM57.5299 118.109C56.9951 118.65 56.7026 119.366 56.7068 120.129C56.711 120.889 57.0118 121.603 57.5528 122.138C58.0939 122.673 58.8104 122.965 59.5728 122.961C60.3332 122.957 61.0476 122.656 61.5824 122.115C62.1171 121.574 62.4096 120.858 62.4054 120.095C62.397 118.524 61.1103 117.252 59.5394 117.261C59.4266 117.261 59.3138 117.269 59.2031 117.281C58.5701 117.359 57.9852 117.645 57.5299 118.107V118.109Z" fill="white"/>
<path d="M64.1541 119.861C63.6716 119.627 63.1535 119.606 62.6543 119.802C62.4642 119.878 62.343 119.585 62.5331 119.51C63.1076 119.282 63.7217 119.301 64.2794 119.57C64.4633 119.658 64.3379 119.951 64.1541 119.861Z" fill="white"/>
<path d="M56.6571 119.091C55.4852 118.696 54.6914 118.418 53.5195 118.021C53.3273 117.957 53.4151 117.652 53.6094 117.718C54.6622 118.074 56.6257 118.746 56.7469 118.788C56.9391 118.853 56.8513 119.158 56.6571 119.091Z" fill="white"/>
<path d="M60.0965 191.855L58.7575 183.336C53.6062 184.146 45.9357 184.781 38.3216 185.224C31.8418 185.6 26.1641 186.156 23.0391 186.647L25.1426 200.02C37.5988 197.632 48.5782 194.879 60.0255 191.873L60.0986 191.855H60.0965Z" fill="#FFC5BD"/>
<path d="M28.2431 198.767C31.2564 196.556 31.9061 192.32 29.6942 189.307C27.4824 186.293 23.2466 185.644 20.2333 187.855C17.2201 190.067 16.5704 194.303 18.7822 197.316C20.9941 200.33 25.2299 200.979 28.2431 198.767Z" fill="#FFC5BD"/>
<path d="M62.6939 190.538C64.3411 188.819 64.2825 186.089 62.563 184.442C60.8434 182.795 58.1142 182.854 56.4669 184.573C54.8197 186.293 54.8783 189.022 56.5978 190.669C58.3173 192.316 61.0466 192.258 62.6939 190.538Z" fill="#FFC5BD"/>
</svg>
