<svg width="22" height="23" viewBox="0 0 22 23" fill="none" xmlns="http://www.w3.org/2000/svg">
<path d="M21.5231 16.955C20.8364 16.379 16.8088 13.8286 16.1394 13.9457C15.8251 14.0015 15.5846 14.2694 14.9411 15.037C14.6436 15.4149 14.3167 15.7688 13.9637 16.0954C13.3169 15.9392 12.6908 15.7071 12.0984 15.404C9.77529 14.2729 7.8985 12.3956 6.76814 10.0721C6.46504 9.47974 6.23296 8.85365 6.07671 8.20683C6.40336 7.85381 6.75723 7.52699 7.13507 7.2294C7.90193 6.58591 8.17064 6.34705 8.22643 6.03119C8.3435 5.36019 5.79071 1.33419 5.21714 0.647476C4.97671 0.363048 4.75829 0.172119 4.47857 0.172119C3.66771 0.172119 0 4.70726 0 5.29498C0 5.34291 0.0785713 10.0643 6.04136 16.1308C12.1079 22.0935 16.8292 22.1721 16.8771 22.1721C17.4649 22.1721 22 18.5044 22 17.6935C22 17.4138 21.8091 17.1954 21.5231 16.955Z" fill="#FEFDF9"/>
<path d="M16.4994 10.3856H18.0709C18.069 8.71907 17.4062 7.12136 16.2278 5.94296C15.0494 4.76457 13.4517 4.10173 11.7852 4.09985V5.67128C13.0351 5.67253 14.2335 6.16961 15.1173 7.05344C16.0011 7.93727 16.4982 9.13564 16.4994 10.3856Z" fill="#FEFDF9"/>
<path d="M20.428 10.3864H21.9994C21.9963 7.67837 20.9192 5.08213 19.0043 3.16726C17.0894 1.25238 14.4932 0.175238 11.7852 0.172119V1.74355C14.0766 1.74625 16.2733 2.6577 17.8936 4.27797C19.5139 5.89823 20.4253 8.09501 20.428 10.3864Z" fill="#FEFDF9"/>
</svg>
