<svg width="38" height="38" viewBox="0 0 38 38" fill="none" xmlns="http://www.w3.org/2000/svg">
<path d="M30.1244 6.54186H29.2365V9.14832C29.2365 10.8247 27.842 12.1892 26.1288 12.1892H11.0343C9.32111 12.1892 7.92664 10.8247 7.92664 9.14832V6.54186H7.03873C5.56968 6.54186 4.375 7.71086 4.375 9.14832V33.9097C4.375 35.3472 5.56968 36.5162 7.03873 36.5162H30.1244C31.5935 36.5162 32.7881 35.3472 32.7881 33.9097V9.14832C32.7881 7.71086 31.5935 6.54186 30.1244 6.54186ZM12.8101 30.4344C12.8101 30.9144 12.4128 31.3032 11.9222 31.3032H10.1464C9.65585 31.3032 9.25851 30.9144 9.25851 30.4344V28.6968C9.25851 28.2168 9.65585 27.828 10.1464 27.828H11.9222C12.4128 27.828 12.8101 28.2168 12.8101 28.6968V30.4344ZM12.8101 24.3527C12.8101 24.8327 12.4128 25.2215 11.9222 25.2215H10.1464C9.65585 25.2215 9.25851 24.8327 9.25851 24.3527V22.615C9.25851 22.135 9.65585 21.7462 10.1464 21.7462H11.9222C12.4128 21.7462 12.8101 22.135 12.8101 22.615V24.3527ZM12.8101 18.2709C12.8101 18.751 12.4128 19.1398 11.9222 19.1398H10.1464C9.65585 19.1398 9.25851 18.751 9.25851 18.2709V16.5333C9.25851 16.0533 9.65585 15.6645 10.1464 15.6645H11.9222C12.4128 15.6645 12.8101 16.0533 12.8101 16.5333V18.2709ZM27.0167 30.4344H16.3618C15.8717 30.4344 15.4739 30.0452 15.4739 29.5656C15.4739 29.086 15.8717 28.6968 16.3618 28.6968H27.0167C27.5068 28.6968 27.9046 29.086 27.9046 29.5656C27.9046 30.0452 27.5068 30.4344 27.0167 30.4344ZM27.0167 24.3527H16.3618C15.8717 24.3527 15.4739 23.9634 15.4739 23.4839C15.4739 23.0043 15.8717 22.615 16.3618 22.615H27.0167C27.5068 22.615 27.9046 23.0043 27.9046 23.4839C27.9046 23.9634 27.5068 24.3527 27.0167 24.3527ZM27.0167 18.2709H16.3618C15.8717 18.2709 15.4739 17.8817 15.4739 17.4021C15.4739 16.9225 15.8717 16.5333 16.3618 16.5333H27.0167C27.5068 16.5333 27.9046 16.9225 27.9046 17.4021C27.9046 17.8817 27.5068 18.2709 27.0167 18.2709ZM26.1288 10.4516H11.0343C10.3 10.4516 9.70246 9.86683 9.70246 9.14832V7.19347C9.70246 6.47496 10.3 5.89024 11.0343 5.89024H13.718C13.9431 3.45798 16.0381 1.54614 18.5816 1.54614C21.125 1.54614 23.22 3.45798 23.4451 5.89024H26.1288C26.8631 5.89024 27.4607 6.47496 27.4607 7.19347V9.14832C27.4607 9.86683 26.8631 10.4516 26.1288 10.4516Z" fill="#346AEA"/>
</svg>
