<svg width="813" height="744" viewBox="0 0 813 744" fill="none" xmlns="http://www.w3.org/2000/svg">
<mask id="mask0_264_8324" style="mask-type:alpha" maskUnits="userSpaceOnUse" x="0" y="0" width="813" height="744">
<rect width="813" height="744" fill="#05173D"/>
</mask>
<g mask="url(#mask0_264_8324)">
<g opacity="0.05">
<path d="M394.271 314.016C536.61 159.666 413.993 20.7868 367.937 -2C367.937 -2 413.379 8.32906 448.491 63.0614C483.604 117.794 475.858 181.312 465.529 217.456C455.199 253.6 429.384 282.517 394.271 314.016Z" fill="white"/>
<path d="M444.877 57.6406C444.877 57.6406 475.337 10.1357 477.92 6.52197C477.92 6.52197 581.042 112.636 474.233 234.5C474.233 234.5 561.576 129.161 478.439 16.0756L444.877 57.6406Z" fill="white"/>
<path d="M556.07 111.086L625.264 64.6123C625.264 64.6123 638 126.579 604.182 177.954C581.424 212.526 545.411 246.373 483.788 256.702C483.788 256.702 561.841 231.399 591.27 170.471C620.699 109.542 614.247 82.6882 614.247 82.6882L556.07 111.086Z" fill="white"/>
<path d="M654.518 92.1543C654.518 92.1543 665.879 177.186 579.815 220.902C579.815 220.902 671.731 197.493 654.518 92.1543Z" fill="white"/>
<path d="M433.861 303.175C433.861 303.175 452.449 283.212 504.431 266.687C556.412 250.162 623.88 231.574 653.485 204.033C683.09 176.491 703.053 142.409 703.053 142.409C703.053 142.409 698.078 209.263 690.317 234.493C681.363 263.578 652.797 339.656 591.862 356.869C576.251 361.28 514.408 370.636 465.177 327.608C465.177 327.608 520.597 370.058 576.024 352.736C631.452 335.414 668.971 282.166 678.262 207.12C678.262 207.12 641.773 231.904 612.856 241.545C583.939 251.186 534.372 265.297 505.455 273.212C476.538 281.127 445.214 295.59 433.854 303.161L433.861 303.175Z" fill="white"/>
<path d="M689.632 254.12C688.103 254.376 754.181 219.782 776.638 189.315C776.638 189.315 752.63 295.173 682.66 288.458C682.66 288.458 729.134 289.233 760.377 217.712C760.377 217.712 712.755 250.221 689.632 254.113V254.12Z" fill="white"/>
<path d="M678.271 299.73C678.271 299.73 721.987 314.88 755.381 299.73C755.381 299.73 721.643 416.086 595.997 390.614C595.997 390.614 695.484 409.546 746.434 310.747C746.434 310.747 708.22 322.107 678.271 299.73Z" fill="white"/>
<path d="M409.071 328.647C409.071 328.647 472.758 387.512 564.329 369.612C564.329 369.612 561.579 417.805 496.51 429.165C431.441 440.526 393.234 388.888 387.038 345.172C387.038 345.172 417.177 448.294 512.34 414.71C529.897 408.514 540.569 397.841 552.274 383.387C552.274 383.387 456.233 387.52 409.071 328.654V328.647Z" fill="white"/>
<path d="M571.554 398.186C571.554 398.186 674.655 456.532 795.999 385.794C795.999 385.794 673.36 549.742 514.576 448.273C514.576 448.273 622.241 514.717 720.609 430.76C720.609 430.76 640.281 445.705 571.554 398.186Z" fill="white"/>
<path d="M415.617 437.431C415.617 437.431 482.917 493.202 568.461 494.746C568.461 494.746 485.156 562.39 384.462 471.513C384.462 471.513 448.858 533.619 550.217 500.562C550.217 500.562 487.218 501.337 415.617 437.439V437.431Z" fill="white"/>
<path d="M345.737 314.016C203.39 159.666 326.008 20.7868 372.072 -2C372.072 -2 326.63 8.32906 291.517 63.0614C256.404 117.794 264.15 181.312 274.479 217.456C284.809 253.6 310.624 282.517 345.737 314.016Z" fill="white"/>
<path d="M295.13 57.6406C295.13 57.6406 264.669 10.1357 262.087 6.52197C262.087 6.52197 158.965 112.636 265.774 234.5C265.774 234.5 178.431 129.161 261.568 16.0756L295.13 57.6406Z" fill="white"/>
<path d="M183.94 111.086L114.745 64.6123C114.745 64.6123 102.009 126.579 135.828 177.954C158.585 212.526 194.598 246.373 256.221 256.702C256.221 256.702 178.168 231.399 148.739 170.471C119.302 109.542 125.762 82.6882 125.762 82.6882L183.94 111.086Z" fill="white"/>
<path d="M85.4834 92.1543C85.4834 92.1543 74.1229 177.186 160.186 220.902C160.186 220.902 68.2707 197.493 85.4834 92.1543Z" fill="white"/>
<path d="M306.147 303.175C306.147 303.175 287.559 283.212 235.577 266.687C183.596 250.162 116.127 231.574 86.5229 204.033C56.9182 176.491 36.9551 142.409 36.9551 142.409C36.9551 142.409 41.9294 209.263 49.6908 234.493C58.6446 263.578 87.2105 339.656 148.146 356.869C163.757 361.28 225.599 370.636 274.831 327.608C274.831 327.608 219.411 370.058 163.983 352.736C108.907 335.523 71.0366 282.166 61.7463 207.12C61.7463 207.12 98.2345 231.904 127.151 241.545C156.068 251.186 205.636 265.297 234.553 273.212C263.47 281.127 294.794 295.59 306.154 303.161L306.147 303.175Z" fill="white"/>
<path d="M50.3702 254.12C51.8991 254.376 -14.1791 219.782 -36.6367 189.315C-36.6367 189.315 -12.6282 295.173 57.3416 288.458C57.3416 288.458 10.8682 289.233 -20.375 217.712C-20.375 217.712 27.2469 250.221 50.3702 254.113V254.12Z" fill="white"/>
<path d="M61.7316 299.73C61.7316 299.73 18.0159 314.88 -15.3779 299.73C-15.3779 299.73 18.3598 416.086 144.006 390.614C144.006 390.614 44.5189 409.546 -6.43144 310.747C-6.43144 310.747 31.7831 322.107 61.7316 299.73Z" fill="white"/>
<path d="M330.93 328.647C330.93 328.647 267.243 387.512 175.672 369.612C175.672 369.612 178.422 417.805 243.491 429.165C308.552 440.526 346.767 388.888 352.963 345.172C352.963 345.172 322.824 448.294 227.661 414.71C210.104 408.514 199.432 397.841 187.727 383.387C187.727 383.387 283.769 387.52 330.93 328.654V328.647Z" fill="white"/>
<path d="M168.445 398.186C168.445 398.186 65.3445 456.532 -56 385.794C-56 385.794 66.6393 549.742 225.423 448.273C225.423 448.273 117.758 514.717 19.3904 430.76C19.3904 430.76 99.7186 445.705 168.445 398.186Z" fill="white"/>
<path d="M324.391 437.431C324.391 437.431 257.091 493.202 171.547 494.746C171.547 494.746 254.852 562.39 355.546 471.513C355.546 471.513 291.15 533.619 189.791 500.562C189.791 500.562 252.789 501.337 324.391 437.439V437.431Z" fill="white"/>
</g>
</g>
</svg>
