<svg width="22" height="22" viewBox="0 0 22 22" fill="none" xmlns="http://www.w3.org/2000/svg">
<path d="M9.5 3C4.25329 3 0 7.25329 0 12.5C0 17.7467 4.25329 22 9.5 22C14.7467 22 19 17.7467 19 12.5C19 7.25329 14.7467 3 9.5 3ZM5.7976 5.05551C5.81087 5.18005 5.86486 5.30236 5.9639 5.4014C6.24301 5.68051 6.16666 6.15105 5.8136 6.32757L5.4681 6.50033C5.38574 6.54151 5.31055 6.5957 5.24544 6.66081L4.67521 7.23104C4.35716 7.54909 3.88671 7.66015 3.46 7.51792L3.43724 7.51033C3.2544 7.44938 3.06671 7.43536 2.8876 7.46204C3.65718 6.45349 4.65226 5.62623 5.7976 5.05551ZM2.23511 16.5428L3.25676 16.2874C3.7854 16.1552 4.15625 15.6802 4.15625 15.1353V14.9168C4.15625 14.5197 4.35468 14.149 4.68504 13.9287L4.73226 13.8972C5.35577 13.4816 5.44313 12.5994 4.91324 12.0695L3.70657 10.8628C3.61432 10.7706 3.5625 10.6455 3.5625 10.515C3.5625 10.1097 4.02524 9.87831 4.34951 10.1215L5.64393 11.0923C5.82385 11.2273 6.06456 11.249 6.26572 11.1484C6.6605 10.951 7.125 11.2381 7.125 11.6795V12.2192C7.125 12.4023 7.17919 12.5813 7.28075 12.7336L8.22429 14.1489C8.28283 14.2368 8.32941 14.332 8.36279 14.4321L9.22934 17.0318C9.39098 17.5167 9.84477 17.8438 10.3559 17.8438H10.4253C10.9365 17.8438 11.3903 17.5167 11.5519 17.0318L12.4185 14.4321C12.4518 14.332 12.4984 14.2368 12.557 14.1489L13.4962 12.7401C13.5962 12.5901 13.7645 12.5 13.9448 12.5C14.1341 12.5 14.3086 12.5992 14.4103 12.7589C15.0719 13.7978 16.3458 15.4688 17.2188 15.4688C17.2352 15.4688 17.2514 15.4682 17.2673 15.4671C16.0726 18.5927 13.0455 20.8125 9.5 20.8125C6.37659 20.8125 3.65554 19.0898 2.23511 16.5428Z" fill="#ADB4C0"/>
</svg>
