<svg width="52" height="52" viewBox="0 0 52 52" fill="none" xmlns="http://www.w3.org/2000/svg">
<path d="M39.9812 3.78906V11.9844H48.2082L39.9812 3.78906Z" fill="#346AEA"/>
<path d="M38.6272 14.6797C37.88 14.6797 37.2742 14.0763 37.2742 13.332V3H17.8818C15.6437 3 13.8229 4.81368 13.8229 7.04297V22.1088C14.2686 22.0685 14.7197 22.0469 15.1758 22.0469C19.7875 22.0469 23.9157 24.1471 26.6477 27.4375H41.3331C42.0803 27.4375 42.6861 28.0409 42.6861 28.7852C42.6861 29.5294 42.0803 30.1328 41.3331 30.1328H28.4302C29.2759 31.7766 29.8212 33.5976 29.9963 35.5234H41.3331C42.0803 35.5234 42.6861 36.1268 42.6861 36.8711C42.6861 37.6154 42.0803 38.2188 41.3331 38.2188H29.9963C29.5917 42.6695 27.2043 46.5586 23.7228 49H44.941C47.1791 49 48.9999 47.1863 48.9999 44.957V14.6797H38.6272ZM41.3331 22.0469H21.4897C20.7425 22.0469 20.1367 21.4435 20.1367 20.6992C20.1367 19.955 20.7425 19.3516 21.4897 19.3516H41.3331C42.0803 19.3516 42.6861 19.955 42.6861 20.6992C42.6861 21.4435 42.0803 22.0469 41.3331 22.0469Z" fill="#346AEA"/>
<path d="M15.1767 24.7422C8.46245 24.7422 3 30.1832 3 36.8711C3 43.559 8.46245 49 15.1767 49C21.8909 49 27.3533 43.559 27.3533 36.8711C27.3533 30.1832 21.8909 24.7422 15.1767 24.7422ZM18.7846 38.2188H15.1767C14.4295 38.2188 13.8237 37.6154 13.8237 36.8711V31.4805C13.8237 30.7362 14.4295 30.1328 15.1767 30.1328C15.9239 30.1328 16.5296 30.7362 16.5296 31.4805V35.5234H18.7846C19.5318 35.5234 20.1375 36.1268 20.1375 36.8711C20.1375 37.6154 19.5318 38.2188 18.7846 38.2188Z" fill="#346AEA"/>
</svg>
