<svg width="52" height="52" viewBox="0 0 52 52" fill="none" xmlns="http://www.w3.org/2000/svg">
<path d="M43.334 39C41.285 39 39.5288 40.2342 38.7554 42H31.2998C30.4736 39.6714 28.2764 37.9998 25.6669 37.9998C23.0575 37.9998 20.8621 39.6714 20.0341 42H12.5785C11.8051 40.2342 10.0489 39 7.99986 39C5.23803 39 3 41.238 3 43.9999C3 46.7617 5.23803 48.9998 7.99986 48.9998C10.0507 48.9998 11.8069 47.7619 12.5785 45.9997H20.0341C20.8603 48.3241 23.0575 50 25.6669 50C28.2764 50 30.4736 48.3241 31.2998 45.9997H38.7554C39.527 47.7619 41.2832 48.9998 43.334 48.9998C46.0958 48.9998 48.3339 46.7617 48.3339 43.9999C48.3339 41.238 46.0958 39 43.334 39ZM25.6669 45.9997C24.5611 45.9997 23.6671 45.1057 23.6671 43.9999C23.6671 42.894 24.5611 42 25.6669 42C26.7727 42 27.6668 42.894 27.6668 43.9999C27.6668 45.1057 26.7727 45.9997 25.6669 45.9997Z" fill="#346AEA"/>
<path d="M25.6666 2C17.9379 2 11.6666 8.26531 11.6666 16.0001C11.6666 19.8635 13.2326 23.3634 15.7683 25.899L25.6666 35.0006L35.5673 25.8948C38.1024 23.3634 39.669 19.8635 39.6666 15.9965C39.6666 8.26951 33.3995 2 25.6666 2ZM25.6666 22.0002C22.354 22.0002 19.6665 19.3127 19.6665 16.0001C19.6665 12.6874 22.354 9.99995 25.6666 9.99995C28.981 9.99995 31.6667 12.6874 31.6667 16.0001C31.6667 19.3127 28.981 22.0002 25.6666 22.0002Z" fill="#346AEA"/>
</svg>
