<svg width="52" height="52" viewBox="0 0 52 52" fill="none" xmlns="http://www.w3.org/2000/svg">
<path d="M26 2C12.7664 2 2 12.7663 2 26C2 39.2337 12.7664 50 26 50C39.2336 50 50 39.2336 50 26C50 12.7664 39.2337 2 26 2ZM32.8825 34.3916H28.7498V37.711C28.7498 37.8926 28.6295 37.9696 28.5577 37.9993C28.4861 38.0291 28.3465 38.0597 28.218 37.9314L23.4738 33.1871C23.3523 33.0656 23.3523 32.868 23.4738 32.7465L28.2181 28.0024C28.2904 27.9301 28.3662 27.9081 28.4315 27.9081C28.4821 27.9081 28.5265 27.9214 28.5578 27.9344C28.6295 27.9641 28.7499 28.0411 28.7499 28.2226V31.5421H32.3222C35.3915 31.5421 37.8885 29.045 37.8885 25.9757C37.8885 23.3891 36.0537 21.1035 33.5255 20.5412C32.7519 20.3691 32.252 19.7581 32.252 18.9845C32.252 18.5691 32.4084 18.2006 32.6924 17.9468C32.9886 17.6821 33.3912 17.563 33.826 17.6126C38.0862 18.0932 41.2987 21.6886 41.2987 25.9756C41.2987 30.6163 37.5233 34.3916 32.8827 34.3916H32.8825ZM19.1175 17.6084H23.2503V14.2889C23.2503 14.1074 23.3706 14.0304 23.4424 14.0007C23.5141 13.9708 23.6536 13.9402 23.7821 14.0685L28.5263 18.8128C28.6478 18.9343 28.6478 19.1319 28.5263 19.2534L23.7821 23.9976C23.6537 24.126 23.5142 24.0955 23.4424 24.0656C23.3707 24.0359 23.2503 23.9589 23.2503 23.7773V20.4578H19.678C16.6087 20.4578 14.1116 22.9549 14.1116 26.0242C14.1116 28.6108 15.9465 30.8964 18.4746 31.4588C19.2482 31.6309 19.7481 32.2419 19.7481 33.0155C19.7481 33.4309 19.5917 33.7994 19.3077 34.0532C19.0115 34.3178 18.6092 34.4366 18.1741 34.3874C13.914 33.9067 10.7014 30.3114 10.7014 26.0243C10.7014 21.3836 14.4769 17.6084 19.1175 17.6084Z" fill="#346AEA"/>
</svg>
