<svg width="52" height="52" viewBox="0 0 52 52" fill="none" xmlns="http://www.w3.org/2000/svg">
<path d="M50.6496 9.09095L44.82 3.33491C43.0173 1.55503 40.0967 1.55503 38.294 3.33491L32.4624 9.09095C30.6598 10.8708 30.6598 13.7547 32.4624 15.5345L38.2921 21.2906C40.0947 23.0705 43.0154 23.0705 44.818 21.2906L50.6476 15.5345C52.4503 13.7547 52.4503 10.8708 50.6496 9.09095ZM43.3214 16.8535C43.3214 17.816 42.5309 18.5966 41.556 18.5966C40.5811 18.5966 39.7907 17.816 39.7907 16.8535V16.5049C39.7907 15.5423 40.5811 14.7618 41.556 14.7618C42.5309 14.7618 43.3214 15.5423 43.3214 16.5049V16.8535ZM43.3214 11.9031C43.3214 12.8657 42.5309 13.6462 41.556 13.6462C40.5811 13.6462 39.7907 12.8657 39.7907 11.9031V7.77202C39.7907 6.80945 40.5811 6.02894 41.556 6.02894C42.5309 6.02894 43.3214 6.80945 43.3214 7.77202V11.9031Z" fill="#346AEA"/>
<path d="M41.5562 25.5307C39.5378 25.5307 37.6391 24.7541 36.2111 23.3441L30.3815 17.5862C28.9535 16.1781 28.1689 14.3053 28.1689 12.3104C28.1689 11.8495 28.2199 11.3982 28.3023 10.9528H7.13953C3.76573 10.9547 1 13.6662 1 17.0361V38.4566C1 41.7879 3.76573 44.5187 7.13953 44.5187H16.4371L21.282 49.3606C22.1255 50.2127 23.5574 50.2127 24.4008 49.3606L29.2458 44.5187H38.5237C41.9368 44.5187 44.6829 41.8072 44.6829 38.4566V24.8412C43.7119 25.2809 42.6566 25.5307 41.5562 25.5307ZM13.434 30.3106C12.006 30.3106 10.8488 29.168 10.8488 27.758C10.8488 26.348 12.006 25.2054 13.434 25.2054C14.862 25.2054 16.0193 26.348 16.0193 27.758C16.0193 29.168 14.864 30.3106 13.434 30.3106ZM22.8316 30.3106C21.4037 30.3106 20.2464 29.168 20.2464 27.758C20.2464 26.348 21.4037 25.2054 22.8316 25.2054C24.2596 25.2054 25.4169 26.348 25.4169 27.758C25.4169 29.168 24.2596 30.3106 22.8316 30.3106ZM32.2273 30.3106C30.7993 30.3106 29.642 29.168 29.642 27.758C29.642 26.348 30.7993 25.2054 32.2273 25.2054C33.6553 25.2054 34.8125 26.348 34.8125 27.758C34.8125 29.168 33.6553 30.3106 32.2273 30.3106Z" fill="#346AEA"/>
</svg>
