<svg width="52" height="52" viewBox="0 0 52 52" fill="none" xmlns="http://www.w3.org/2000/svg">
<path d="M28.4982 51.1298C28.1629 51.1298 27.843 50.9374 27.6962 50.6119C27.4965 50.1689 27.6936 49.6485 28.1363 49.4488C32.7578 47.3656 36.6044 44.4988 39.5694 40.9284C39.8802 40.5548 40.435 40.5042 40.8077 40.8133C41.1816 41.1237 41.2327 41.678 40.9228 42.0515C37.785 45.8298 33.7264 48.858 28.8593 51.0519C28.7417 51.1048 28.6193 51.1298 28.4982 51.1298ZM48.6347 15.7639C48.1422 15.7375 47.729 16.1068 47.7026 16.5905C47.4036 22.051 46.5595 26.7641 45.135 30.8704C45.7241 31.0023 46.2693 31.231 46.7617 31.5475C48.2566 27.2653 49.1535 22.3587 49.4612 16.6872C49.4876 16.2036 49.1183 15.7903 48.6347 15.7639ZM42.3564 4.88683C37.8719 4.20097 32.8774 2.82924 28.6479 1.07062C28.2083 0.877174 27.6895 1.097 27.5048 1.53666C27.3114 1.9851 27.5224 2.5039 27.9709 2.68855C32.3586 4.51752 37.5641 5.95079 42.2333 6.63666C42.2157 6.46959 42.2069 6.29373 42.2069 6.11786C42.2069 5.69579 42.2597 5.28252 42.3564 4.88683ZM47.4828 2.60062C45.5434 2.60062 43.9655 4.17846 43.9655 6.11786C43.9655 8.05727 45.5434 9.63511 47.4828 9.63511C49.4222 9.63511 51 8.05727 51 6.11786C51 4.17846 49.4222 2.60062 47.4828 2.60062ZM43.9655 32.4972C42.0261 32.4972 40.4483 34.075 40.4483 36.0144C40.4483 37.9538 42.0261 39.5317 43.9655 39.5317C45.9049 39.5317 47.4828 37.9538 47.4828 36.0144C47.4828 34.075 45.9049 32.4972 43.9655 32.4972ZM22.5018 51.1297C22.8371 51.1297 23.157 50.9374 23.3038 50.6118C23.5035 50.1688 23.3064 49.6484 22.8637 49.4487C18.2422 47.3655 14.3956 44.4987 11.4306 40.9283C11.1198 40.5547 10.565 40.5041 10.1924 40.8132C9.81838 41.1236 9.76729 41.6779 10.0772 42.0514C13.215 45.8297 17.2736 48.8579 22.1407 51.0519C22.2583 51.1047 22.3807 51.1297 22.5018 51.1297ZM1.53879 16.6873C1.84655 22.3588 2.74345 27.2654 4.23828 31.5476C4.73069 31.2311 5.27586 31.0024 5.865 30.8705C4.44052 26.7642 3.59638 22.0511 3.29741 16.5905C3.27103 16.1069 2.85776 15.7376 2.36535 15.764C1.88172 15.7904 1.51241 16.2036 1.53879 16.6873ZM8.7931 6.11795C8.7931 6.29381 8.78431 6.46968 8.76672 6.63674C13.436 5.95088 18.6414 4.51761 23.0291 2.68864C23.4776 2.50399 23.6886 1.98519 23.4952 1.53674C23.3105 1.09709 22.7917 0.877262 22.3521 1.07071C18.1226 2.82933 13.1281 4.20105 8.64362 4.88692C8.74035 5.28261 8.7931 5.69588 8.7931 6.11795ZM0 6.11795C0 8.05736 1.57783 9.63519 3.51724 9.63519C5.45665 9.63519 7.03448 8.05736 7.03448 6.11795C7.03448 4.17854 5.45665 2.60071 3.51724 2.60071C1.57783 2.60071 0 4.17854 0 6.11795ZM3.51724 36.0145C3.51724 37.9539 5.09508 39.5317 7.03448 39.5317C8.97389 39.5317 10.5517 37.9539 10.5517 36.0145C10.5517 34.0751 8.97389 32.4973 7.03448 32.4973C5.09508 32.4973 3.51724 34.0751 3.51724 36.0145ZM25.5073 18.4416C25.2519 18.4416 24.9925 18.4687 24.7315 18.5232C23.4151 18.798 22.3439 19.8675 22.0652 21.1843C21.7578 22.639 22.3533 24.0984 23.583 24.902C23.9171 25.1206 24.0622 25.5371 23.936 25.9162L22.3238 30.7528H28.6769L27.0642 25.9162C26.9379 25.537 27.0831 25.1201 27.4176 24.9016C28.4193 24.2473 29.0173 23.1473 29.0173 21.9597C29.0173 20.8957 28.5433 19.9001 27.7164 19.2286C27.0792 18.7107 26.3141 18.4416 25.5073 18.4416ZM43.4065 13.5848C43.091 25.6903 40.8528 38.9912 26.646 45.8531C26.2871 46.0266 25.8938 46.1129 25.5001 46.1129C25.1064 46.1129 24.7131 46.0266 24.3542 45.8531C10.1472 38.989 7.90905 25.6895 7.59346 13.5844C7.55908 12.2744 8.50627 11.1314 9.79692 10.9263C14.686 10.1483 20.0395 8.63401 24.4859 6.77145C25.1394 6.49799 25.8603 6.49799 26.5145 6.77145C30.9609 8.63401 36.3145 10.1483 41.2031 10.9258C42.4937 11.1315 43.4408 12.2744 43.4065 13.5848ZM28.9327 25.9595C30.0976 24.963 30.7759 23.5118 30.7759 21.9597C30.7759 20.3638 30.0649 18.8709 28.8254 17.8637C27.5858 16.8556 25.9612 16.4704 24.3718 16.8015C22.3839 17.2167 20.7652 18.8319 20.3444 20.8206C19.9348 22.7605 20.6051 24.7084 22.0679 25.9595L20.6554 30.1959C20.4772 30.7309 20.5669 31.3234 20.8966 31.7806C21.2264 32.2383 21.7596 32.5114 22.3234 32.5114H28.6769C29.2407 32.5114 29.774 32.2384 30.1037 31.7806C30.4335 31.3234 30.5232 30.7309 30.345 30.1963L28.9327 25.9595Z" fill="#346AEA"/>
</svg>
