<svg width="52" height="52" viewBox="0 0 52 52" fill="none" xmlns="http://www.w3.org/2000/svg">
<path d="M41.3438 8.85714H40.125V12.4348C40.125 14.7358 38.211 16.6087 35.8594 16.6087H15.1406C12.789 16.6087 10.875 14.7358 10.875 12.4348V8.85714H9.65625C7.63983 8.85714 6 10.4617 6 12.4348V46.4224C6 48.3954 7.63983 50 9.65625 50H41.3438C43.3602 50 45 48.3954 45 46.4224V12.4348C45 10.4617 43.3602 8.85714 41.3438 8.85714ZM17.5781 41.6522C17.5781 42.3111 17.0327 42.8447 16.3594 42.8447H13.9219C13.2485 42.8447 12.7031 42.3111 12.7031 41.6522V39.2671C12.7031 38.6082 13.2485 38.0745 13.9219 38.0745H16.3594C17.0327 38.0745 17.5781 38.6082 17.5781 39.2671V41.6522ZM17.5781 33.3043C17.5781 33.9632 17.0327 34.4969 16.3594 34.4969H13.9219C13.2485 34.4969 12.7031 33.9632 12.7031 33.3043V30.9193C12.7031 30.2604 13.2485 29.7267 13.9219 29.7267H16.3594C17.0327 29.7267 17.5781 30.2604 17.5781 30.9193V33.3043ZM17.5781 24.9565C17.5781 25.6154 17.0327 26.1491 16.3594 26.1491H13.9219C13.2485 26.1491 12.7031 25.6154 12.7031 24.9565V22.5714C12.7031 21.9125 13.2485 21.3789 13.9219 21.3789H16.3594C17.0327 21.3789 17.5781 21.9125 17.5781 22.5714V24.9565ZM37.0781 41.6522H22.4531C21.7804 41.6522 21.2344 41.1179 21.2344 40.4596C21.2344 39.8013 21.7804 39.2671 22.4531 39.2671H37.0781C37.7509 39.2671 38.2969 39.8013 38.2969 40.4596C38.2969 41.1179 37.7509 41.6522 37.0781 41.6522ZM37.0781 33.3043H22.4531C21.7804 33.3043 21.2344 32.7701 21.2344 32.1118C21.2344 31.4535 21.7804 30.9193 22.4531 30.9193H37.0781C37.7509 30.9193 38.2969 31.4535 38.2969 32.1118C38.2969 32.7701 37.7509 33.3043 37.0781 33.3043ZM37.0781 24.9565H22.4531C21.7804 24.9565 21.2344 24.4223 21.2344 23.764C21.2344 23.1057 21.7804 22.5714 22.4531 22.5714H37.0781C37.7509 22.5714 38.2969 23.1057 38.2969 23.764C38.2969 24.4223 37.7509 24.9565 37.0781 24.9565ZM35.8594 14.2236H15.1406C14.1327 14.2236 13.3125 13.421 13.3125 12.4348V9.75155C13.3125 8.76532 14.1327 7.96273 15.1406 7.96273H18.8243C19.1332 4.6242 22.0089 2 25.5 2C28.9911 2 31.8668 4.6242 32.1757 7.96273H35.8594C36.8673 7.96273 37.6875 8.76532 37.6875 9.75155V12.4348C37.6875 13.421 36.8673 14.2236 35.8594 14.2236Z" fill="#346AEA"/>
</svg>
