<svg width="23" height="17" viewBox="0 0 23 17" fill="none" xmlns="http://www.w3.org/2000/svg">
<path d="M14.9032 9.04077L12.977 10.9735C12.1958 11.7574 10.8214 11.7743 10.0234 10.9735L8.09704 9.04077L1.17847 15.9818C1.436 16.1009 1.71995 16.172 2.02182 16.172H20.9785C21.2804 16.172 21.5642 16.101 21.8217 15.9818L14.9032 9.04077Z" fill="#FEFDF9"/>
<path d="M20.9784 0H2.02173C1.71986 0 1.43591 0.0710653 1.17847 0.190151L8.57145 7.60766C8.57194 7.60815 8.57253 7.60824 8.57302 7.60874C8.57351 7.60923 8.5736 7.60991 8.5736 7.60991L10.9775 10.0217C11.2328 10.2771 11.7675 10.2771 12.0228 10.0217L14.4262 7.61031C14.4262 7.61031 14.4267 7.60923 14.4272 7.60874C14.4272 7.60874 14.4283 7.60815 14.4288 7.60766L21.8216 0.190106C21.5642 0.0709755 21.2803 0 20.9784 0Z" fill="#FEFDF9"/>
<path d="M0.214992 1.13306C0.0817564 1.40249 0 1.70158 0 2.02196V14.1507C0 14.471 0.0816666 14.7701 0.214947 15.0396L7.14551 8.08653L0.214992 1.13306Z" fill="#FEFDF9"/>
<path d="M22.785 1.13184L15.8545 8.0854L22.785 15.0385C22.9182 14.7691 23 14.47 23 14.1495V2.02082C23 1.70036 22.9182 1.40127 22.785 1.13184Z" fill="#FEFDF9"/>
</svg>
