<svg width="38" height="38" viewBox="0 0 38 38" fill="none" xmlns="http://www.w3.org/2000/svg">
<path d="M36.9008 6.71312L32.6537 2.51965C31.3405 1.22294 29.2127 1.22294 27.8994 2.51965L23.651 6.71312C22.3377 8.00983 22.3377 10.1108 23.651 11.4075L27.898 15.601C29.2113 16.8977 31.3391 16.8977 32.6523 15.601L36.8993 11.4075C38.2126 10.1108 38.2126 8.00983 36.9008 6.71312ZM31.562 12.3684C31.562 13.0697 30.9861 13.6383 30.2759 13.6383C29.5656 13.6383 28.9898 13.0697 28.9898 12.3684V12.1144C28.9898 11.4131 29.5656 10.8445 30.2759 10.8445C30.9861 10.8445 31.562 11.4131 31.562 12.1144V12.3684ZM31.562 8.76189C31.562 9.46315 30.9861 10.0318 30.2759 10.0318C29.5656 10.0318 28.9898 9.46315 28.9898 8.76189V5.75223C28.9898 5.05097 29.5656 4.48234 30.2759 4.48234C30.9861 4.48234 31.562 5.05097 31.562 5.75223V8.76189Z" fill="#346AEA"/>
<path d="M30.2709 18.6911C28.8004 18.6911 27.4171 18.1253 26.3768 17.0981L22.1298 12.9032C21.0895 11.8774 20.5179 10.513 20.5179 9.05966C20.5179 8.72385 20.555 8.39509 20.615 8.07056H5.19742C2.73952 8.07197 0.724609 10.0474 0.724609 12.5025V28.1081C0.724609 30.535 2.73952 32.5245 5.19742 32.5245H11.9709L15.5006 36.052C16.1151 36.6728 17.1583 36.6728 17.7727 36.052L21.3024 32.5245H28.0616C30.5481 32.5245 32.5487 30.5491 32.5487 28.1081V18.1888C31.8414 18.5091 31.0726 18.6911 30.2709 18.6911ZM9.78312 22.1734C8.7428 22.1734 7.89968 21.341 7.89968 20.3138C7.89968 19.2866 8.7428 18.4541 9.78312 18.4541C10.8234 18.4541 11.6666 19.2866 11.6666 20.3138C11.6666 21.341 10.8249 22.1734 9.78312 22.1734ZM16.6295 22.1734C15.5892 22.1734 14.7461 21.341 14.7461 20.3138C14.7461 19.2866 15.5892 18.4541 16.6295 18.4541C17.6698 18.4541 18.513 19.2866 18.513 20.3138C18.513 21.341 17.6698 22.1734 16.6295 22.1734ZM23.4745 22.1734C22.4342 22.1734 21.5911 21.341 21.5911 20.3138C21.5911 19.2866 22.4342 18.4541 23.4745 18.4541C24.5148 18.4541 25.3579 19.2866 25.3579 20.3138C25.3579 21.341 24.5148 22.1734 23.4745 22.1734Z" fill="#346AEA"/>
</svg>
