<svg width="18" height="26" viewBox="0 0 18 26" fill="none" xmlns="http://www.w3.org/2000/svg">
<path d="M8.66668 0C3.88796 0 0 3.88797 0 8.66668C0 10.1013 0.358668 11.5236 1.04051 12.7852L8.19274 25.7207C8.28796 25.8932 8.4694 26 8.66668 26C8.86397 26 9.04541 25.8932 9.14062 25.7207L16.2955 12.781C16.9747 11.5236 17.3334 10.1012 17.3334 8.66663C17.3334 3.88796 13.4454 0 8.66668 0ZM8.66668 13C6.27732 13 4.33337 11.056 4.33337 8.66668C4.33337 6.27732 6.27732 4.33337 8.66668 4.33337C11.056 4.33337 13 6.27732 13 8.66668C13 11.056 11.056 13 8.66668 13Z" fill="#FEFDF9"/>
</svg>
