<svg width="29" height="28" viewBox="0 0 29 28" fill="none" xmlns="http://www.w3.org/2000/svg">
<path d="M25.3796 6.62266L18.8718 0.109375H5.66475C5.08506 0.109375 4.61475 0.579688 4.61475 1.15938V19.7914H25.3796V6.62266Z" fill="#EFF3F5"/>
<path d="M18.8716 5.57266C18.8716 6.15234 19.3419 6.62266 19.9216 6.62266H25.3849L18.8716 0.109375V5.57266Z" fill="#DBDFE0"/>
<path d="M4.62012 19.7859V26.8406C4.62012 27.4203 5.09043 27.8906 5.67012 27.8906H24.335C24.9146 27.8906 25.385 27.4203 25.385 26.8406V19.7859H4.62012Z" fill="#FC2132"/>
<path d="M9.67358 18.5938C9.33998 18.5938 9.01733 18.468 8.72201 18.2219C8.22436 17.8063 8.18608 17.3469 8.2353 17.0352C8.47592 15.6297 11.09 14.3446 12.6103 13.7102C13.4361 11.643 14.1525 9.20942 14.5955 7.38286C13.7095 5.4852 13.3978 4.14536 13.6712 3.38521C13.808 3.00786 14.0869 2.76177 14.4806 2.67427L14.5353 2.66333L14.59 2.6688C14.6337 2.67427 15.022 2.73442 15.3392 3.16099C15.7494 3.7188 15.8423 4.62114 15.6126 5.84614C15.547 6.19614 15.4376 6.69927 15.2955 7.30083C16.1048 8.9852 17.2423 10.8446 18.172 12.1352C18.9486 12.0258 19.6869 11.9875 20.3103 12.0532C21.4751 12.1735 21.7212 12.6821 21.765 12.9774C21.8306 13.4094 21.5134 13.8579 20.972 14.0875C20.2228 14.4047 18.9978 14.3227 18.0025 13.0321C17.9587 12.9774 17.915 12.9172 17.8712 12.8571C16.5915 13.0704 15.104 13.475 13.5947 14.0383C13.4361 14.0985 13.283 14.1586 13.1298 14.2188C12.1072 16.7235 11.1064 18.1618 10.1494 18.5063C9.99623 18.5665 9.83217 18.5938 9.67358 18.5938ZM12.2439 14.5961C10.0728 15.575 8.99545 16.543 8.89701 17.15C8.87514 17.2813 8.87514 17.4836 9.15405 17.7133C9.41108 17.9266 9.65717 17.9813 9.93061 17.8829C10.6908 17.6094 11.5001 16.2969 12.2439 14.5961ZM18.6423 12.7532C19.3806 13.6227 20.2119 13.6938 20.715 13.475C20.9775 13.3657 21.1251 13.1797 21.1087 13.0758C21.0923 12.9665 20.8462 12.7805 20.2447 12.7204C19.7962 12.6766 19.2548 12.6875 18.6423 12.7532ZM15.0548 8.30161C14.7212 9.58677 14.2673 11.1344 13.7369 12.6329C13.6439 12.8899 13.5564 13.136 13.4634 13.3766C14.6501 12.9391 16.083 12.5125 17.4447 12.2555C16.7119 11.211 15.8095 9.76177 15.0548 8.30161ZM14.5626 3.35239C14.4369 3.39614 14.3548 3.47817 14.3056 3.62036C14.1142 4.14536 14.3658 5.13521 14.8525 6.30552C14.8962 6.09771 14.9345 5.9063 14.9673 5.7313C15.2189 4.36958 14.9783 3.78442 14.8087 3.5602C14.7158 3.43442 14.6173 3.37427 14.5626 3.35239Z" fill="#FC2132"/>
<path d="M19.9433 23.4171H18.6909V22.1429H19.9433C20.1784 22.1429 20.3698 21.9515 20.3698 21.7164C20.3698 21.4812 20.1784 21.2898 19.9433 21.2898H18.2698C18.0347 21.2898 17.8433 21.4812 17.8433 21.7164V25.9601C17.8433 26.1953 18.0347 26.3867 18.2698 26.3867C18.505 26.3867 18.6964 26.1953 18.6964 25.9601V24.2648H19.9487C20.1839 24.2648 20.3753 24.0734 20.3753 23.8382C20.3698 23.6031 20.1784 23.4171 19.9433 23.4171Z" fill="#EFF3F5"/>
<path d="M10.92 21.2952H10.056C9.8208 21.2952 9.62939 21.4866 9.62939 21.7217V25.9655C9.62939 26.2006 9.8208 26.392 10.056 26.392C10.2911 26.392 10.4825 26.2006 10.4825 25.9655V24.2702H10.92C11.7403 24.2702 12.4075 23.603 12.4075 22.7827C12.4075 21.9624 11.7403 21.2952 10.92 21.2952ZM10.92 23.417H10.4825V22.1428H10.92C11.27 22.1428 11.5544 22.4272 11.5544 22.7772C11.5544 23.1272 11.27 23.417 10.92 23.417Z" fill="#EFF3F5"/>
<path d="M14.5842 21.2952H13.4686C13.2334 21.2952 13.042 21.4866 13.042 21.7217V25.9655C13.042 26.2006 13.2334 26.392 13.4686 26.392H14.5842C15.9896 26.392 17.1326 25.2491 17.1326 23.8436C17.1326 22.4327 15.9896 21.2952 14.5842 21.2952ZM14.5842 25.5334H13.8951V22.1374H14.5842C15.5193 22.1374 16.2795 22.8975 16.2795 23.8327C16.285 24.7733 15.5193 25.5334 14.5842 25.5334Z" fill="#EFF3F5"/>
</svg>
