<svg width="45" height="45" viewBox="0 0 45 45" fill="none" xmlns="http://www.w3.org/2000/svg">
<path d="M39.1816 10.6436L28.7227 0.175781H7.49707C6.56543 0.175781 5.80957 0.931641 5.80957 1.86328V31.8076H39.1816V10.6436Z" fill="#EFF3F5"/>
<path d="M28.7227 8.95605C28.7227 9.8877 29.4785 10.6436 30.4102 10.6436H39.1904L28.7227 0.175781V8.95605Z" fill="#DBDFE0"/>
<path d="M5.81836 31.7988V43.1367C5.81836 44.0684 6.57422 44.8242 7.50586 44.8242H37.5029C38.4346 44.8242 39.1904 44.0684 39.1904 43.1367V31.7988H5.81836Z" fill="#FC2132"/>
<path d="M13.9394 29.8828C13.4032 29.8828 12.8847 29.6807 12.4101 29.2852C11.6103 28.6172 11.5488 27.8789 11.6279 27.3779C12.0146 25.1191 16.2157 23.0537 18.6591 22.0342C19.9863 18.7119 21.1376 14.8008 21.8495 11.8652C20.4257 8.81543 19.9247 6.66211 20.3642 5.44043C20.5839 4.83398 21.0322 4.43848 21.665 4.29785L21.7529 4.28027L21.8407 4.28906C21.9111 4.29785 22.5351 4.39453 23.0449 5.08008C23.704 5.97656 23.8534 7.42676 23.4843 9.39551C23.3788 9.95801 23.2031 10.7666 22.9745 11.7334C24.2753 14.4404 26.1034 17.4287 27.5976 19.5029C28.8456 19.3271 30.0322 19.2656 31.0341 19.3711C32.9062 19.5645 33.3017 20.3818 33.372 20.8564C33.4775 21.5508 32.9677 22.2715 32.0976 22.6406C30.8935 23.1504 28.9247 23.0186 27.3251 20.9443C27.2548 20.8564 27.1845 20.7598 27.1142 20.6631C25.0575 21.0059 22.6669 21.6563 20.2411 22.5615C19.9863 22.6582 19.7402 22.7549 19.4941 22.8516C17.8505 26.877 16.2421 29.1885 14.704 29.7422C14.4579 29.8389 14.1943 29.8828 13.9394 29.8828ZM18.0702 23.458C14.581 25.0312 12.8495 26.5869 12.6913 27.5625C12.6562 27.7734 12.6562 28.0986 13.1044 28.4678C13.5175 28.8105 13.913 28.8984 14.3525 28.7402C15.5741 28.3008 16.8749 26.1914 18.0702 23.458ZM28.3534 20.4961C29.54 21.8936 30.8759 22.0078 31.6845 21.6562C32.1064 21.4805 32.3437 21.1816 32.3173 21.0146C32.2909 20.8389 31.8954 20.54 30.9286 20.4434C30.2079 20.373 29.3378 20.3906 28.3534 20.4961ZM22.5878 13.3418C22.0517 15.4072 21.3222 17.8945 20.4697 20.3027C20.3202 20.7158 20.1796 21.1113 20.0302 21.498C21.9374 20.7949 24.2402 20.1094 26.4286 19.6963C25.2509 18.0176 23.8007 15.6885 22.5878 13.3418ZM21.7968 5.3877C21.5947 5.45801 21.4628 5.58984 21.3837 5.81836C21.0761 6.66211 21.4804 8.25293 22.2626 10.1338C22.3329 9.79981 22.3945 9.49219 22.4472 9.21094C22.8515 7.02246 22.4648 6.08203 22.1923 5.72168C22.0429 5.51953 21.8847 5.42285 21.7968 5.3877Z" fill="#FC2132"/>
<path d="M30.4453 37.6348H28.4326V35.5869H30.4453C30.8232 35.5869 31.1309 35.2793 31.1309 34.9014C31.1309 34.5234 30.8232 34.2158 30.4453 34.2158H27.7559C27.3779 34.2158 27.0703 34.5234 27.0703 34.9014V41.7217C27.0703 42.0996 27.3779 42.4072 27.7559 42.4072C28.1338 42.4072 28.4414 42.0996 28.4414 41.7217V38.9971H30.4541C30.832 38.9971 31.1396 38.6895 31.1396 38.3115C31.1309 37.9336 30.8232 37.6348 30.4453 37.6348Z" fill="#EFF3F5"/>
<path d="M15.9434 34.2246H14.5547C14.1768 34.2246 13.8691 34.5322 13.8691 34.9102V41.7305C13.8691 42.1084 14.1768 42.416 14.5547 42.416C14.9326 42.416 15.2402 42.1084 15.2402 41.7305V39.0059H15.9434C17.2617 39.0059 18.334 37.9336 18.334 36.6152C18.334 35.2969 17.2617 34.2246 15.9434 34.2246ZM15.9434 37.6348H15.2402V35.5869H15.9434C16.5059 35.5869 16.9629 36.0439 16.9629 36.6064C16.9629 37.1689 16.5059 37.6348 15.9434 37.6348Z" fill="#EFF3F5"/>
<path d="M21.832 34.2246H20.0391C19.6611 34.2246 19.3535 34.5322 19.3535 34.9102V41.7305C19.3535 42.1084 19.6611 42.416 20.0391 42.416H21.832C24.0908 42.416 25.9277 40.5791 25.9277 38.3203C25.9277 36.0527 24.0908 34.2246 21.832 34.2246ZM21.832 41.0361H20.7246V35.5781H21.832C23.335 35.5781 24.5566 36.7998 24.5566 38.3027C24.5654 39.8145 23.335 41.0361 21.832 41.0361Z" fill="#EFF3F5"/>
</svg>
