<svg width="36" height="36" viewBox="0 0 36 36" fill="none" xmlns="http://www.w3.org/2000/svg">
<path d="M17.7582 0.0844727C7.96632 0.0844727 0 8.05072 0 17.8427C0 27.6346 7.96632 35.6009 17.7582 35.6009C27.5501 35.6009 35.5164 27.6346 35.5164 17.8427C35.5164 8.05079 27.5502 0.0844727 17.7582 0.0844727ZM22.8507 24.0519H19.7929V26.508C19.7929 26.6423 19.7038 26.6993 19.6507 26.7213C19.5977 26.7433 19.4944 26.7659 19.3994 26.671L15.889 23.1606C15.7991 23.0707 15.7991 22.9245 15.889 22.8346L19.3994 19.3243C19.4529 19.2708 19.509 19.2546 19.5573 19.2546C19.5948 19.2546 19.6276 19.2643 19.6508 19.274C19.7038 19.296 19.7929 19.3529 19.7929 19.4872V21.9434H22.4362C24.7072 21.9434 26.5548 20.0957 26.5548 17.8247C26.5548 15.9108 25.1972 14.2196 23.3265 13.8036C22.7541 13.6763 22.3843 13.2241 22.3843 12.6517C22.3843 12.3444 22.4999 12.0717 22.7101 11.8839C22.9292 11.6881 23.2272 11.5999 23.5489 11.6367C26.7011 11.9923 29.0781 14.6525 29.0781 17.8246C29.0781 21.2584 26.2846 24.0519 22.8509 24.0519H22.8507ZM12.6657 11.6335H15.7236V9.17732C15.7236 9.04302 15.8126 8.98608 15.8658 8.96408C15.9188 8.94201 16.0221 8.91936 16.1171 9.01426L19.6275 12.5247C19.7174 12.6146 19.7174 12.7608 19.6275 12.8507L16.1171 16.3611C16.0221 16.456 15.9189 16.4335 15.8658 16.4114C15.8127 16.3894 15.7236 16.3324 15.7236 16.1981V13.7419H13.0804C10.8094 13.7419 8.96171 15.5895 8.96171 17.8606C8.96171 19.7744 10.3194 21.4656 12.19 21.8818C12.7624 22.0091 13.1322 22.4613 13.1322 23.0336C13.1322 23.341 13.0166 23.6137 12.8064 23.8015C12.5873 23.9972 12.2895 24.0852 11.9676 24.0487C8.81548 23.693 6.43839 21.0328 6.43839 17.8607C6.43839 14.4269 9.23197 11.6335 12.6657 11.6335Z" fill="#346AEA"/>
</svg>
