<svg width="66" height="72" viewBox="0 0 66 72" fill="none" xmlns="http://www.w3.org/2000/svg">
<path d="M12.1919 4.4686C11.5998 4.4686 11.0189 4.53563 10.4603 4.66968V3.35145C10.4603 1.50813 11.9685 0 13.8118 0H29.4519C31.2952 0 32.8033 1.50813 32.8033 3.35145V4.66968C32.2448 4.53563 31.6638 4.4686 31.0718 4.4686H12.1919Z" fill="#346AEA"/>
<path d="M32.8033 68.146C32.8033 69.9893 31.2952 71.4974 29.4519 71.4974H13.8118C11.9685 71.4974 10.4603 69.9893 10.4603 68.146V67.0288H32.8033V68.146Z" fill="#346AEA"/>
<path d="M36.8102 13.2134L38.0117 23.226L30.8471 19.1765L36.8102 13.2134Z" fill="#346AEA"/>
<path d="M36.6025 41.5573L24.8758 50.0865L20.3964 47.8468L32.2812 38.9336L36.6025 41.5573Z" fill="#346AEA"/>
<path d="M38.6732 42.814L40.4951 43.9201L42.2499 58.5435C42.2594 58.6228 42.2596 58.7019 42.2656 58.781L27.1266 51.2114L38.6732 42.814Z" fill="#346AEA"/>
<path d="M6.64447 11.6233C6.77532 10.5348 7.22037 9.5558 7.87386 8.7583L38.3421 25.9796L39.0829 32.1525L6.4408 13.3203L6.64447 11.6233Z" fill="#346AEA"/>
<path d="M1.87546 51.3625L2.34717 47.4321L34.7571 64.7945H27.2469L1.87546 51.3625Z" fill="#346AEA"/>
<path d="M26.5643 16.7561L34.9878 8.33252C35.5973 8.93521 36.0755 9.66984 36.3577 10.5061L28.8282 18.0357L26.5643 16.7561Z" fill="#346AEA"/>
<path d="M21.568 13.932L28.7971 6.70312H31.0731C31.7792 6.70312 32.4578 6.83527 33.0837 7.07733L24.5459 15.6152L21.568 13.932Z" fill="#346AEA"/>
<path d="M4.08369 32.9618L5.3308 22.5698L12.1343 26.7006L4.08369 32.9618Z" fill="#346AEA"/>
<path d="M25.6379 6.70312L19.5497 12.7911L9.78557 7.27213C10.5195 6.91914 11.3293 6.70312 12.1909 6.70312H25.6379Z" fill="#346AEA"/>
<path d="M1.0137 58.5435L1.59014 53.7397L22.4718 64.7947H6.56018C4.96409 64.7947 3.4411 64.1101 2.38287 62.9166C1.32244 61.7226 0.823874 60.1287 1.0137 58.5435Z" fill="#346AEA"/>
<path d="M3.03913 41.666L24.4841 52.3886C24.4844 52.3887 24.4837 52.3885 24.4841 52.3886L41.9445 61.1188C41.7065 61.7722 41.3534 62.385 40.8821 62.9161C40.2929 63.5803 39.5574 64.0798 38.7485 64.3986L2.63295 45.0508L3.03913 41.666Z" fill="#346AEA"/>
<path d="M7.71089 41.5036L21.151 32.1989C21.1569 32.1949 21.1595 32.1882 21.1653 32.1841L25.1735 34.6177L11.5083 43.4024L7.71089 41.5036Z" fill="#346AEA"/>
<path d="M6.15106 15.7329L39.4152 34.9237L40.1564 41.1004L5.62296 20.1337L6.15106 15.7329Z" fill="#346AEA"/>
<path d="M13.8333 44.5648L27.2991 35.9082L30.2242 37.6842L18.1634 46.7298L13.8333 44.5648Z" fill="#346AEA"/>
<path d="M19.0779 30.9162L5.43172 40.3636L3.32234 39.3089L3.70922 36.0847L14.1791 27.9419L19.0779 30.9162Z" fill="#346AEA"/>
<path d="M40.5566 25.6496L40.2215 22.9014C42.2435 23.728 44.4555 25.6496 45.0811 30.0064C45.1481 30.4645 45.2375 30.9001 45.3492 31.3135C46.768 29.2691 49.1252 27.9285 51.7952 27.9285C55.9398 27.9285 59.3359 31.1571 59.5817 35.2347C57.2133 36.5083 54.2976 36.2178 52.9123 35.972V34.6314C52.9123 34.017 52.4096 33.5143 51.7952 33.5143C51.1807 33.5143 50.678 34.017 50.678 34.6314V39.1C50.678 39.7145 51.1807 40.2172 51.7952 40.2172C52.4096 40.2172 52.9123 39.7145 52.9123 39.1V38.2398C53.5826 38.3404 54.4204 38.4298 55.3812 38.4298C57.0033 38.4298 58.2661 38.1504 59.3338 37.8068C59.3843 37.7884 59.4368 37.7691 59.4923 37.7483C61.3915 37.0556 62.8773 35.8268 63.9274 34.0841C64.2402 33.559 64.9217 33.3914 65.4579 33.7042C65.983 34.0282 66.1617 34.7097 65.8378 35.2347C64.3407 37.7372 62.0618 39.424 59.1907 40.1837C57.7608 50.2604 53.1134 69.6765 52.8788 70.6372C52.7559 71.1399 52.3091 71.4974 51.7952 71.4974C51.2812 71.4974 50.8344 71.1399 50.7116 70.6372C50.4323 69.4977 43.9751 42.5073 43.9751 35.7486C43.9751 35.2236 44.031 34.7097 44.1315 34.2069C43.4947 33.1233 43.0814 31.8274 42.8691 30.3193C42.5563 28.1855 41.7855 26.6215 40.5566 25.6496Z" fill="#346AEA"/>
</svg>
