<svg width="59" height="70" viewBox="0 0 59 70" fill="none" xmlns="http://www.w3.org/2000/svg">
<path d="M36.0875 15.9596H30.4502V11.4205C30.4502 10.2879 29.532 9.36975 28.3994 9.36975H28.2535V4.10156H28.3994C31.1204 3.99314 31.1183 0.107324 28.3994 0H15.2196C12.4987 0.108418 12.5007 3.99424 15.2196 4.10156H15.3654V9.36975H15.2196C14.0871 9.36975 13.1689 10.2879 13.1689 11.4205V33.3867C13.1689 34.5193 14.0871 35.4375 15.2196 35.4375H28.3994C29.532 35.4375 30.4502 34.5193 30.4502 33.3867V28.8477H36.0875C49.4044 29.3757 49.3767 48.3772 36.0875 48.9088H8.62964C7.49706 48.9088 6.57886 49.827 6.57886 50.9596V61.7969H36.0874C48.7247 61.7969 59.006 51.5156 59.006 38.8783V38.8772C59.0061 26.2404 48.7249 15.9596 36.0875 15.9596ZM28.3992 28.8477C24.846 28.8477 21.9553 25.9569 21.9553 22.4037C22.3092 13.8548 34.4906 13.8573 34.8434 22.4037C34.8434 25.9569 31.9524 28.8477 28.3992 28.8477Z" fill="#346AEA"/>
<path d="M26.2033 43.6411C27.3359 43.6411 28.2541 42.7229 28.2541 41.5903V39.5396H15.366V41.5903C15.366 42.7229 16.2842 43.6411 17.4168 43.6411H26.2033Z" fill="#346AEA"/>
<path d="M41.5792 65.8984H2.03997C-0.681015 66.0069 -0.678964 69.8927 2.03997 70H41.5792C44.3001 69.8916 44.2981 66.0058 41.5792 65.8984Z" fill="#346AEA"/>
<path d="M28.399 20.061C27.1075 20.061 26.0566 21.1119 26.0566 22.4034C26.1853 25.5111 30.6134 25.5101 30.7416 22.4034C30.7416 21.1119 29.6906 20.061 28.399 20.061Z" fill="#346AEA"/>
</svg>
