<svg width="85" height="67" viewBox="0 0 85 67" fill="none" xmlns="http://www.w3.org/2000/svg">
<path fill-rule="evenodd" clip-rule="evenodd" d="M1.29481 39.7048H4.28414L2.14154 44.0522L2.10094 44.0789H1.29498C0.582715 44.0789 3.97591e-08 43.4962 3.97591e-08 42.7837V40.9997C-0.000175742 40.2875 0.58254 39.7048 1.29481 39.7048ZM58.0732 5.93437C58.0732 2.65693 55.4165 0 52.139 0C48.8614 0 46.2047 2.65711 46.2047 5.93437C46.2047 9.21164 48.8614 11.8687 52.139 11.8687C55.4165 11.8689 58.0732 9.21181 58.0732 5.93437ZM53.7824 5.93437C53.7824 6.84211 53.0466 7.57793 52.1389 7.57793C51.2311 7.57793 50.4953 6.84211 50.4953 5.93437C50.4953 5.02664 51.2311 4.29082 52.1389 4.29082C53.0466 4.29082 53.7824 5.02664 53.7824 5.93437ZM73.983 30.3521C73.983 31.9484 72.6891 33.2422 71.093 33.2422C69.4969 33.2422 68.203 31.9484 68.203 30.3521C68.203 28.7561 69.4969 27.4621 71.093 27.4621C72.6891 27.4621 73.983 28.7561 73.983 30.3521ZM81.8317 61.1865H60.3549C58.956 61.1865 57.8117 62.3308 57.8117 63.7297V66.273H84.3749V63.7295C84.3749 62.3308 83.2305 61.1865 81.8317 61.1865ZM78.158 30.3521C78.158 26.4505 74.9948 23.2873 71.0932 23.2873C67.1915 23.2873 64.0284 26.4505 64.0284 30.3521C64.0284 34.2538 67.1915 37.4168 71.0932 37.4168C74.9948 37.4166 78.158 34.2538 78.158 30.3521ZM78.3014 58.374L76.6568 38.5131C75.0722 39.5958 73.1565 40.2293 71.093 40.2293C69.0297 40.2293 67.114 39.5958 65.5294 38.5133L63.8847 58.374H78.3014ZM70.5875 20.4877C66.7387 20.6819 63.4704 23.0808 62.0193 26.4461L54.7274 14.2917C57.6267 13.3944 59.8817 11.0289 60.6238 8.06467L70.5875 20.4877ZM43.8226 8.64949C44.3387 10.2308 45.2934 11.614 46.5429 12.6559L44.0313 14.6855L34.1137 19.4187L40.9982 10.9322L43.8226 8.64949ZM7.6333 45.2255H45.3322C49.3216 45.2255 52.5855 48.4896 52.5855 52.479V60.737H0.380039V52.479C0.380039 48.4896 3.64395 45.2255 7.6333 45.2255ZM43.2299 49.4448C41.2768 49.4448 39.6934 51.0282 39.6934 52.9813C39.6934 54.9344 41.2768 56.5179 43.2299 56.5179C45.183 56.5179 46.7664 54.9344 46.7664 52.9813C46.7664 51.0282 45.183 49.4448 43.2299 49.4448ZM9.73565 49.4448C7.78254 49.4448 6.1991 51.0282 6.1991 52.9813C6.1991 54.9344 7.78254 56.5179 9.73565 56.5179C11.6888 56.5179 13.2722 54.9344 13.2722 52.9813C13.2722 51.0282 11.6888 49.4448 9.73565 49.4448ZM49.3719 63.5495V64.2266C49.3719 65.3521 48.4511 66.2729 47.3256 66.2729H44.5068C43.3813 66.2729 42.4605 65.3521 42.4605 64.2266V63.5495H49.3719ZM10.5052 63.5495V64.2266C10.5052 65.3521 9.5843 66.2729 8.45895 66.2729H5.63994C4.51442 66.2729 3.59367 65.3521 3.59367 64.2266V63.5495H10.5052ZM46.9449 42.5434L42.509 33.5429C41.9506 32.4097 40.8683 31.7364 39.6049 31.7364H13.3606C12.0971 31.7364 11.015 32.4097 10.4565 33.5429L6.02069 42.5434C6.5461 42.458 7.08469 42.413 7.63348 42.413H45.3324C45.881 42.4132 46.4196 42.4582 46.9449 42.5434ZM48.6814 39.7048H51.6706C52.3828 39.7048 52.9657 40.2875 52.9657 40.9999V42.7839C52.9657 43.4962 52.383 44.0791 51.6706 44.0791H50.8648L50.824 44.0522L48.6814 39.7048Z" fill="#346AEA"/>
</svg>
