<svg width="64" height="72" viewBox="0 0 64 72" fill="none" xmlns="http://www.w3.org/2000/svg">
<path d="M48.0898 47.3735H53.5013V54.6013H48.0898V47.3735Z" fill="#346AEA"/>
<path d="M7.89764 27.5976C9.15605 27.5962 10.3625 27.0957 11.2524 26.2059C12.1422 25.316 12.6427 24.1095 12.644 22.8511V17.0239H3.15125V22.8511C3.15226 24.1096 3.65265 25.3163 4.54256 26.2062C5.43246 27.0961 6.63913 27.5965 7.89764 27.5976Z" fill="#346AEA"/>
<path d="M64 71.625V47.3735H56.0599V55.8803C56.0599 56.2195 55.9252 56.5448 55.6853 56.7847C55.4455 57.0245 55.1201 57.1593 54.7809 57.1593H46.8114C46.4722 57.1593 46.1469 57.0245 45.907 56.7847C45.6672 56.5448 45.5324 56.2195 45.5324 55.8803V47.3735H37.5911V71.625H64ZM57.2724 64.4906H60.947C61.2862 64.4906 61.6116 64.6254 61.8514 64.8652C62.0913 65.1051 62.226 65.4304 62.226 65.7696C62.226 66.1088 62.0913 66.4342 61.8514 66.674C61.6116 66.9139 61.2862 67.0486 60.947 67.0486H57.2724C56.9332 67.0486 56.6079 66.9139 56.368 66.674C56.1282 66.4342 55.9934 66.1088 55.9934 65.7696C55.9934 65.4304 56.1282 65.1051 56.368 64.8652C56.6079 64.6254 56.9332 64.4906 57.2724 64.4906ZM53.2461 64.4906H54.1414C54.4806 64.4906 54.806 64.6254 55.0458 64.8652C55.2857 65.1051 55.4204 65.4304 55.4204 65.7696C55.4204 66.1088 55.2857 66.4342 55.0458 66.674C54.806 66.9139 54.4806 67.0486 54.1414 67.0486H53.2461C52.9069 67.0486 52.5816 66.9139 52.3417 66.674C52.1019 66.4342 51.9671 66.1088 51.9671 65.7696C51.9671 65.4304 52.1019 65.1051 52.3417 64.8652C52.5816 64.6254 52.9069 64.4906 53.2461 64.4906ZM53.2461 68.0578H60.947C61.2862 68.0578 61.6116 68.1925 61.8514 68.4324C62.0913 68.6723 62.226 68.9976 62.226 69.3368C62.226 69.676 62.0913 70.0013 61.8514 70.2412C61.6116 70.4811 61.2862 70.6158 60.947 70.6158H53.2461C52.9069 70.6158 52.5816 70.4811 52.3417 70.2412C52.1019 70.0013 51.9671 69.676 51.9671 69.3368C51.9671 68.9976 52.1019 68.6723 52.3417 68.4324C52.5816 68.1925 52.9069 68.0578 53.2461 68.0578Z" fill="#346AEA"/>
<path d="M44.0511 27.5976C45.3097 27.5965 46.5165 27.0962 47.4066 26.2063C48.2967 25.3164 48.7974 24.1098 48.7988 22.8511V17.0239H39.3047V22.8511C39.306 24.1095 39.8065 25.316 40.6964 26.2059C41.5862 27.0957 42.7927 27.5962 44.0511 27.5976Z" fill="#346AEA"/>
<path d="M51.3562 22.8511C51.3562 24.11 51.8563 25.3172 52.7464 26.2074C53.6365 27.0975 54.8438 27.5976 56.1026 27.5976C57.3614 27.5976 58.5687 27.0975 59.4588 26.2074C60.3489 25.3172 60.849 24.11 60.849 22.8511V17.0239H51.3562V22.8511Z" fill="#346AEA"/>
<path d="M27.5399 4.14274H53.0267V3.78589C53.0253 2.78222 52.626 1.82005 51.9163 1.11036C51.2066 0.400657 50.2445 0.00135356 49.2408 0H14.7588C13.7551 0.00135356 12.7929 0.400657 12.0832 1.11036C11.3736 1.82005 10.9743 2.78222 10.9729 3.78589V4.14274H27.5399Z" fill="#346AEA"/>
<path d="M1.58445 71.6248H26.3972C26.6142 71.6246 26.8287 71.5791 27.027 71.4909C27.2252 71.4028 27.4028 71.2741 27.5483 71.1132C27.7022 70.9466 27.8196 70.7498 27.8929 70.5353C27.9663 70.3207 27.994 70.0933 27.9742 69.8674L25.8613 43.9097C25.8307 43.51 25.6519 43.1361 25.3599 42.8614C25.068 42.5867 24.6839 42.431 24.283 42.4248H3.69865C3.2978 42.431 2.91371 42.5867 2.62173 42.8614C2.32974 43.1361 2.15093 43.51 2.12036 43.9097L0.00615867 69.8738C-0.0135481 70.0995 0.0141627 70.3267 0.0875116 70.5411C0.160861 70.7554 0.278225 70.952 0.432068 71.1183C0.578098 71.2785 0.756098 71.4064 0.954586 71.4936C1.15307 71.5809 1.36764 71.6255 1.58445 71.6248ZM7.41161 46.0943C7.41161 45.7551 7.54637 45.4298 7.78623 45.1899C8.02609 44.95 8.35141 44.8153 8.69062 44.8153C9.02984 44.8153 9.35516 44.95 9.59502 45.1899C9.83488 45.4298 9.96963 45.7551 9.96963 46.0943V48.0039C9.96963 49.0697 10.393 50.0919 11.1467 50.8455C11.9003 51.5992 12.9225 52.0225 13.9883 52.0225C15.0541 52.0225 16.0762 51.5992 16.8299 50.8455C17.5835 50.0919 18.0069 49.0697 18.0069 48.0039V46.0943C18.0069 45.7551 18.1417 45.4298 18.3815 45.1899C18.6214 44.95 18.9467 44.8153 19.2859 44.8153C19.6251 44.8153 19.9505 44.95 20.1903 45.1899C20.4302 45.4298 20.5649 45.7551 20.5649 46.0943V48.0039C20.5649 49.7481 19.872 51.4209 18.6387 52.6543C17.4053 53.8877 15.7325 54.5806 13.9883 54.5806C12.244 54.5806 10.5712 53.8877 9.33788 52.6543C8.10451 51.4209 7.41161 49.7481 7.41161 48.0039V46.0943Z" fill="#346AEA"/>
<path d="M13.6065 13.3498L16.6314 6.7002H10.3336L4.44629 14.4651H13.1001L13.6065 13.3498Z" fill="#346AEA"/>
<path d="M50.3923 13.3498L50.8988 14.4651H59.5525L53.6653 6.7002H47.3674L50.3923 13.3498Z" fill="#346AEA"/>
<path d="M15.2023 22.8511C15.2227 24.0966 15.7318 25.2842 16.6199 26.1578C17.5079 27.0313 18.7036 27.5209 19.9493 27.5209C21.195 27.5209 22.3907 27.0313 23.2788 26.1578C24.1668 25.2842 24.6759 24.0966 24.6963 22.8511V17.0239H15.2023V22.8511Z" fill="#346AEA"/>
<path d="M25.1934 12.3624L26.0517 6.7002H19.4417L18.9353 7.81422L15.9104 14.4651H24.875L25.1934 12.3624Z" fill="#346AEA"/>
<path d="M35.0323 71.6242V46.0938C35.0323 45.7546 35.1671 45.4292 35.4069 45.1894C35.6468 44.9495 35.9721 44.8148 36.3113 44.8148H53.0267V29.4666C51.8384 28.913 50.8201 28.0513 50.0773 26.9712C49.4086 27.9533 48.51 28.757 47.4597 29.3125C46.4095 29.868 45.2394 30.1584 44.0513 30.1584C42.8631 30.1584 41.693 29.868 40.6428 29.3125C39.5925 28.757 38.6939 27.9533 38.0252 26.9712C37.3565 27.953 36.4579 28.7565 35.4078 29.3119C34.3577 29.8672 33.1877 30.1575 31.9998 30.1575C30.8119 30.1575 29.6419 29.8672 28.5918 29.3119C27.5417 28.7565 26.6431 27.953 25.9744 26.9712C25.3057 27.9533 24.4071 28.757 23.3568 29.3125C22.3066 29.868 21.1365 30.1584 19.9483 30.1584C18.7602 30.1584 17.5901 29.868 16.5398 29.3125C15.4896 28.757 14.591 27.9533 13.9223 26.9712C13.1795 28.0513 12.1611 28.913 10.9729 29.4666V39.8662H24.2746C25.3173 39.8755 26.3188 40.2743 27.0825 40.9843C27.8461 41.6942 28.3168 42.6641 28.4019 43.7033L30.5149 69.6673C30.5641 70.3364 30.4518 71.0076 30.1874 71.6242H35.0323Z" fill="#346AEA"/>
<path d="M27.2537 22.8511C27.2537 24.11 27.7537 25.3172 28.6439 26.2074C29.534 27.0975 30.7412 27.5976 32.0001 27.5976C33.2589 27.5976 34.4662 27.0975 35.3563 26.2074C36.2464 25.3172 36.7465 24.11 36.7465 22.8511V17.0239H27.2537V22.8511Z" fill="#346AEA"/>
<path d="M35.3595 6.7002H28.6396L28.3199 8.80162L27.4617 14.4651H36.5375L35.6793 8.80162L35.3595 6.7002Z" fill="#346AEA"/>
<path d="M44.5594 6.7002H37.9495L38.8077 12.3624L39.1261 14.4651H48.0907L45.0659 7.81422L44.5594 6.7002Z" fill="#346AEA"/>
</svg>
