<svg width="38" height="38" viewBox="0 0 38 38" fill="none" xmlns="http://www.w3.org/2000/svg">
<path d="M20.7853 37.3613C20.5408 37.3613 20.3075 37.2209 20.2004 36.9836C20.0547 36.6604 20.1985 36.2809 20.5213 36.1352C23.8921 34.6158 26.6976 32.5249 28.8602 29.9208C29.0869 29.6484 29.4915 29.6114 29.7633 29.8369C30.0361 30.0632 30.0733 30.4675 29.8472 30.74C27.5587 33.4957 24.5985 35.7043 21.0487 37.3045C20.9629 37.343 20.8736 37.3613 20.7853 37.3613ZM35.472 11.567C35.1128 11.5477 34.8114 11.8171 34.7922 12.1698C34.5741 16.1525 33.9584 19.59 32.9195 22.585C33.3492 22.6812 33.7468 22.848 34.1059 23.0788C35.1962 19.9556 35.8503 16.3769 36.0748 12.2404C36.0941 11.8876 35.8247 11.5862 35.472 11.567ZM30.8929 3.63371C27.6221 3.13347 23.9793 2.133 20.8945 0.850337C20.5739 0.709244 20.1955 0.869577 20.0608 1.19024C19.9197 1.51732 20.0736 1.8957 20.4007 2.03038C23.6009 3.36435 27.3976 4.40972 30.8031 4.90996C30.7903 4.7881 30.7838 4.65984 30.7838 4.53157C30.7838 4.22373 30.8223 3.92231 30.8929 3.63371ZM34.6318 1.96625C33.2173 1.96625 32.0665 3.11705 32.0665 4.53157C32.0665 5.94609 33.2173 7.09689 34.6318 7.09689C36.0463 7.09689 37.1971 5.94609 37.1971 4.53157C37.1971 3.11705 36.0463 1.96625 34.6318 1.96625ZM32.0665 23.7715C30.652 23.7715 29.5012 24.9223 29.5012 26.3368C29.5012 27.7513 30.652 28.9021 32.0665 28.9021C33.481 28.9021 34.6318 27.7513 34.6318 26.3368C34.6318 24.9223 33.481 23.7715 32.0665 23.7715ZM16.4118 37.3612C16.6564 37.3612 16.8897 37.2209 16.9968 36.9835C17.1424 36.6603 16.9986 36.2808 16.6758 36.1352C13.305 34.6158 10.4995 32.5249 8.33697 29.9207C8.11026 29.6483 7.70564 29.6114 7.43385 29.8368C7.16109 30.0632 7.12383 30.4675 7.3499 30.7399C9.63842 33.4956 12.5986 35.7043 16.1484 37.3044C16.2342 37.343 16.3235 37.3612 16.4118 37.3612ZM1.12233 12.2404C1.34679 16.377 2.00095 19.9556 3.09121 23.0789C3.45036 22.848 3.84798 22.6813 4.27767 22.5851C3.23872 19.5901 2.62304 16.1525 2.40499 12.1699C2.38575 11.8171 2.08432 11.5478 1.72518 11.567C1.37245 11.5863 1.10309 11.8877 1.12233 12.2404ZM6.4133 4.53164C6.4133 4.6599 6.40689 4.78817 6.39406 4.91002C9.79959 4.40978 13.5962 3.36441 16.7964 2.03045C17.1235 1.89577 17.2774 1.51738 17.1363 1.19031C17.0017 0.869641 16.6233 0.709308 16.3026 0.850401C13.2178 2.13306 9.57506 3.13354 6.30427 3.63377C6.37482 3.92237 6.4133 4.2238 6.4133 4.53164ZM0 4.53164C0 5.94615 1.1508 7.09696 2.56532 7.09696C3.97984 7.09696 5.13064 5.94615 5.13064 4.53164C5.13064 3.11712 3.97984 1.96632 2.56532 1.96632C1.1508 1.96632 0 3.11712 0 4.53164ZM2.56532 26.3369C2.56532 27.7514 3.71612 28.9022 5.13064 28.9022C6.54516 28.9022 7.69596 27.7514 7.69596 26.3369C7.69596 24.9223 6.54516 23.7715 5.13064 23.7715C3.71612 23.7715 2.56532 24.9223 2.56532 26.3369ZM18.6039 13.5199C18.4176 13.5199 18.2285 13.5397 18.038 13.5795C17.0779 13.7799 16.2966 14.5599 16.0934 15.5204C15.8692 16.5813 16.3035 17.6457 17.2004 18.2319C17.444 18.3913 17.5499 18.6951 17.4578 18.9716L16.282 22.4992H20.9156L19.7394 18.9716C19.6473 18.695 19.7532 18.391 19.9972 18.2316C20.7278 17.7544 21.164 16.9521 21.164 16.0859C21.164 15.3099 20.8182 14.5837 20.2151 14.0939C19.7504 13.7163 19.1923 13.5199 18.6039 13.5199ZM31.6588 9.97762C31.4286 18.8069 29.7962 28.5079 19.4344 33.5127C19.1726 33.6392 18.8858 33.7021 18.5986 33.7021C18.3115 33.7021 18.0246 33.6392 17.7629 33.5127C7.40095 28.5063 5.76851 18.8062 5.53833 9.9773C5.51326 9.02191 6.2041 8.18824 7.14544 8.03862C10.7113 7.47117 14.6159 6.36674 17.8589 5.00827C18.3356 4.80882 18.8613 4.80882 19.3385 5.00827C22.5815 6.36674 26.4862 7.47117 30.0517 8.0383C30.993 8.18831 31.6838 9.02191 31.6588 9.97762ZM21.1023 19.0032C21.9518 18.2764 22.4466 17.2179 22.4466 16.0859C22.4466 14.922 21.928 13.8331 21.024 13.0985C20.1199 12.3632 18.9349 12.0823 17.7757 12.3237C16.3258 12.6266 15.1452 13.8046 14.8383 15.2551C14.5396 16.67 15.0284 18.0907 16.0953 19.0032L15.0651 22.093C14.9352 22.4832 15.0006 22.9154 15.2411 23.2489C15.4816 23.5827 15.8705 23.7819 16.2817 23.7819H20.9157C21.3269 23.7819 21.7158 23.5827 21.9563 23.2489C22.1968 22.9154 22.2623 22.4832 22.1323 22.0933L21.1023 19.0032Z" fill="#346AEA"/>
</svg>
