<svg width="37" height="39" viewBox="0 0 37 39" fill="none" xmlns="http://www.w3.org/2000/svg">
<path d="M32.7899 29.3714C31.1663 29.3714 29.7747 30.3494 29.1619 31.7485H23.2543C22.5996 29.9034 20.8586 28.5789 18.7909 28.5789C16.7232 28.5789 14.9836 29.9034 14.3275 31.7485H8.4199C7.80707 30.3494 6.41547 29.3714 4.79187 29.3714C2.60345 29.3714 0.830078 31.1448 0.830078 33.3332C0.830078 35.5216 2.60345 37.2949 4.79187 37.2949C6.4169 37.2949 7.80849 36.3141 8.4199 34.9178H14.3275C14.9822 36.7596 16.7232 38.0875 18.7909 38.0875C20.8586 38.0875 22.5996 36.7596 23.2543 34.9178H29.1619C29.7733 36.3141 31.1649 37.2949 32.7899 37.2949C34.9784 37.2949 36.7517 35.5216 36.7517 33.3332C36.7517 31.1448 34.9784 29.3714 32.7899 29.3714ZM18.7909 34.9178C17.9147 34.9178 17.2063 34.2094 17.2063 33.3332C17.2063 32.4569 17.9147 31.7485 18.7909 31.7485C19.6671 31.7485 20.3755 32.4569 20.3755 33.3332C20.3755 34.2094 19.6671 34.9178 18.7909 34.9178Z" fill="#346AEA"/>
<path d="M18.7945 0.0534668C12.6704 0.0534668 7.70117 5.01791 7.70117 11.1467C7.70117 14.208 8.94205 16.9812 10.9512 18.9903L18.7945 26.2021L26.6396 18.987C28.6483 16.9812 29.8897 14.208 29.8878 11.1438C29.8878 5.02124 24.9219 0.0534668 18.7945 0.0534668ZM18.7945 15.901C16.1696 15.901 14.0401 13.7715 14.0401 11.1467C14.0401 8.52183 16.1696 6.39238 18.7945 6.39238C21.4208 6.39238 23.5488 8.52183 23.5488 11.1467C23.5488 13.7715 21.4208 15.901 18.7945 15.901Z" fill="#346AEA"/>
</svg>
